<svg width="50" height="317" viewBox="0 0 50 317" fill="none" xmlns="http://www.w3.org/2000/svg">
<circle cx="43.9817" cy="6.83542" r="5.89939" transform="rotate(90 43.9817 6.83542)" fill="#E6E6E6"/>
<circle cx="5.9634" cy="6.83542" r="5.89939" transform="rotate(90 5.9634 6.83542)" fill="#E6E6E6"/>
<circle cx="43.9817" cy="158.909" r="5.89939" transform="rotate(90 43.9817 158.909)" fill="#E6E6E6"/>
<circle cx="5.9634" cy="158.909" r="5.89939" transform="rotate(90 5.9634 158.909)" fill="#E6E6E6"/>
<circle cx="43.9817" cy="310.982" r="5.89939" transform="rotate(90 43.9817 310.982)" fill="#E6E6E6"/>
<circle cx="5.9634" cy="310.982" r="5.89939" transform="rotate(90 5.9634 310.982)" fill="#E6E6E6"/>
<circle cx="43.9817" cy="82.872" r="5.89939" transform="rotate(90 43.9817 82.872)" fill="#E6E6E6"/>
<circle cx="5.9634" cy="82.872" r="5.89939" transform="rotate(90 5.9634 82.872)" fill="#E6E6E6"/>
<circle cx="43.9817" cy="234.945" r="5.89939" transform="rotate(90 43.9817 234.945)" fill="#E6E6E6"/>
<circle cx="5.9634" cy="234.945" r="5.89939" transform="rotate(90 5.9634 234.945)" fill="#E6E6E6"/>
<circle cx="43.9817" cy="44.8537" r="5.89939" transform="rotate(90 43.9817 44.8537)" fill="#E6E6E6"/>
<circle cx="5.9634" cy="44.8537" r="5.89939" transform="rotate(90 5.9634 44.8537)" fill="#E6E6E6"/>
<circle cx="43.9817" cy="196.927" r="5.89939" transform="rotate(90 43.9817 196.927)" fill="#E6E6E6"/>
<circle cx="5.9634" cy="196.927" r="5.89939" transform="rotate(90 5.9634 196.927)" fill="#E6E6E6"/>
<circle cx="43.9817" cy="120.89" r="5.89939" transform="rotate(90 43.9817 120.89)" fill="#E6E6E6"/>
<circle cx="5.9634" cy="120.89" r="5.89939" transform="rotate(90 5.9634 120.89)" fill="#E6E6E6"/>
<circle cx="43.9817" cy="272.963" r="5.89939" transform="rotate(90 43.9817 272.963)" fill="#E6E6E6"/>
<circle cx="5.9634" cy="272.963" r="5.89939" transform="rotate(90 5.9634 272.963)" fill="#E6E6E6"/>
</svg>
