<svg width="745" height="838" viewBox="0 0 745 838" fill="none" xmlns="http://www.w3.org/2000/svg">
<path d="M6.3091 4.40238C6.3091 6.76308 5.25759 7.94343 3.15455 7.94343C1.05152 7.94343 0 6.76308 0 4.40238C0 2.63185 1.57728 0.861328 3.15455 0.861328C4.73183 0.861328 6.3091 2.63185 6.3091 4.40238Z" fill="#E5E5E5"/>
<path d="M73.6062 4.40238C73.6062 6.1729 72.0289 7.94343 70.4517 7.94343C68.8744 7.94343 67.2971 6.1729 67.2971 4.40238C67.2971 2.63185 68.3486 0.861328 70.4517 0.861328C72.0289 0.861328 73.6062 2.63185 73.6062 4.40238Z" fill="#E5E5E5"/>
<path d="M140.903 4.40238C140.903 6.1729 139.326 7.94343 137.749 7.94343C136.171 7.94343 134.594 6.1729 134.594 4.40238C134.594 2.63185 136.171 0.861328 137.749 0.861328C139.326 0.861328 140.903 2.63185 140.903 4.40238Z" fill="#E5E5E5"/>
<path d="M208.2 4.40238C208.2 6.1729 206.623 7.94343 205.046 7.94343C203.469 7.94343 201.891 6.1729 201.891 4.40238C201.891 2.63185 203.469 0.861328 205.046 0.861328C206.623 0.861328 208.2 2.63185 208.2 4.40238Z" fill="#E5E5E5"/>
<path d="M274.972 4.40238C274.972 6.1729 273.394 7.94343 271.817 7.94343C270.24 7.94343 268.663 6.1729 268.663 4.40238C268.663 2.63185 270.24 0.861328 271.817 0.861328C273.394 0.861328 274.972 2.63185 274.972 4.40238Z" fill="#E5E5E5"/>
<path d="M342.269 4.40238C342.269 6.1729 340.692 7.94343 339.115 7.94343C337.537 7.94343 335.96 6.76308 335.96 4.40238C335.96 2.63185 337.537 0.861328 339.115 0.861328C340.692 0.861328 342.269 2.63185 342.269 4.40238Z" fill="#E5E5E5"/>
<path d="M409.566 4.40238C409.566 6.1729 407.989 7.94343 406.411 7.94343C404.834 7.94343 402.731 6.76308 402.731 4.40238C402.731 2.63185 404.308 0.861328 405.885 0.861328C407.463 0.861328 409.566 2.63185 409.566 4.40238Z" fill="#E5E5E5"/>
<path d="M476.337 4.40238C476.337 6.1729 474.76 7.94343 473.183 7.94343C471.606 7.94343 470.028 6.1729 470.028 4.40238C470.028 2.63185 471.606 0.861328 473.183 0.861328C475.286 0.861328 476.337 2.63185 476.337 4.40238Z" fill="#E5E5E5"/>
<path d="M543.635 4.40238C543.635 6.1729 542.057 7.94343 540.48 7.94343C538.903 7.94343 537.325 6.1729 537.325 4.40238C537.325 2.63185 538.903 0.861328 540.48 0.861328C542.057 0.861328 543.635 2.63185 543.635 4.40238Z" fill="#E5E5E5"/>
<path d="M610.932 4.40238C610.932 6.1729 609.354 7.94343 607.777 7.94343C606.2 7.94343 604.623 6.1729 604.623 4.40238C604.623 2.63185 606.2 0.861328 607.777 0.861328C609.354 0.861328 610.932 2.63185 610.932 4.40238Z" fill="#E5E5E5"/>
<path d="M678.229 4.40238C678.229 6.1729 676.651 7.94343 675.074 7.94343C673.497 7.94343 671.919 6.1729 671.919 4.40238C671.919 2.63185 673.497 0.861328 675.074 0.861328C676.651 0.861328 678.229 2.63185 678.229 4.40238Z" fill="#E5E5E5"/>
<path d="M745 4.40238C745 6.1729 743.423 7.94343 741.846 7.94343C740.268 7.94343 738.691 6.1729 738.691 4.40238C738.691 2.63185 740.268 0.861328 741.846 0.861328C743.949 0.861328 745 2.63185 745 4.40238Z" fill="#E5E5E5"/>
<path d="M6.3091 79.9449C6.3091 81.7154 5.25759 83.4859 3.15455 83.4859C1.05152 83.4859 0 81.7154 0 79.9449C0 78.1743 1.57728 76.4038 3.15455 76.4038C4.73183 76.4038 6.3091 77.5842 6.3091 79.9449Z" fill="#E5E5E5"/>
<path d="M73.6062 79.9449C73.6062 81.7154 72.0289 83.4859 70.4517 83.4859C68.8744 83.4859 67.2971 81.7154 67.2971 79.9449C67.2971 78.1743 68.8744 76.4038 70.4517 76.4038C72.0289 76.4038 73.6062 77.5842 73.6062 79.9449Z" fill="#E5E5E5"/>
<path d="M140.903 79.9449C140.903 81.7154 139.326 83.4859 137.749 83.4859C136.171 83.4859 134.594 81.7154 134.594 79.9449C134.594 78.1743 136.171 76.4038 137.749 76.4038C139.326 76.4038 140.903 77.5842 140.903 79.9449Z" fill="#E5E5E5"/>
<path d="M208.2 79.9449C208.2 81.7154 206.623 83.4859 205.046 83.4859C203.469 83.4859 201.891 81.7154 201.891 79.9449C201.891 78.1743 203.469 76.4038 205.046 76.4038C206.623 76.4038 208.2 77.5842 208.2 79.9449Z" fill="#E5E5E5"/>
<path d="M274.972 79.9449C274.972 81.7154 273.394 83.4859 271.817 83.4859C270.24 83.4859 268.663 81.7154 268.663 79.9449C268.663 78.1743 270.24 76.4038 271.817 76.4038C273.394 76.4038 274.972 77.5842 274.972 79.9449Z" fill="#E5E5E5"/>
<path d="M342.269 79.9449C342.269 81.7154 340.692 83.4859 339.115 83.4859C337.537 83.4859 335.96 81.7154 335.96 79.9449C335.96 78.1743 337.537 76.4038 339.115 76.4038C340.692 76.4038 342.269 77.5842 342.269 79.9449Z" fill="#E5E5E5"/>
<path d="M409.566 79.9449C409.566 81.7154 407.989 83.4859 406.411 83.4859C404.834 83.4859 403.257 81.7154 403.257 79.9449C403.257 78.1743 404.834 76.4038 406.411 76.4038C407.989 76.4038 409.566 77.5842 409.566 79.9449Z" fill="#E5E5E5"/>
<path d="M476.337 79.9449C476.337 81.7154 474.76 83.4859 473.183 83.4859C471.606 83.4859 470.028 81.7154 470.028 79.9449C470.028 78.1743 471.606 76.4038 473.183 76.4038C475.286 76.4038 476.337 77.5842 476.337 79.9449Z" fill="#E5E5E5"/>
<path d="M543.635 79.9449C543.635 81.7154 542.057 83.4859 540.48 83.4859C538.903 83.4859 537.325 81.7154 537.325 79.9449C537.325 78.1743 538.903 76.4038 540.48 76.4038C542.057 76.4038 543.635 77.5842 543.635 79.9449Z" fill="#E5E5E5"/>
<path d="M610.932 79.9449C610.932 81.7154 609.354 83.4859 607.777 83.4859C606.2 83.4859 604.623 81.7154 604.623 79.9449C604.623 78.1743 606.2 76.4038 607.777 76.4038C609.354 76.4038 610.932 77.5842 610.932 79.9449Z" fill="#E5E5E5"/>
<path d="M678.229 79.9449C678.229 81.7154 676.651 83.4859 675.074 83.4859C673.497 83.4859 671.919 81.7154 671.919 79.9449C671.919 78.1743 673.497 76.4038 675.074 76.4038C676.651 76.4038 678.229 77.5842 678.229 79.9449Z" fill="#E5E5E5"/>
<path d="M745 79.9449C745 81.7154 743.423 83.4859 741.846 83.4859C740.268 83.4859 738.691 81.7154 738.691 79.9449C738.691 78.1743 740.268 76.4038 741.846 76.4038C743.949 76.4038 745 77.5842 745 79.9449Z" fill="#E5E5E5"/>
<path d="M6.3091 155.488C6.3091 157.258 4.73183 159.029 3.15455 159.029C1.57728 159.029 0 157.258 0 155.488C0 153.717 1.57728 151.947 3.15455 151.947C4.73183 151.947 6.3091 153.127 6.3091 155.488Z" fill="#E5E5E5"/>
<path d="M73.6062 155.487C73.6062 157.257 72.0289 159.028 70.4517 159.028C68.8744 159.028 67.2971 157.257 67.2971 155.487C67.2971 153.716 68.8744 151.945 70.4517 151.945C72.0289 151.355 73.6062 153.126 73.6062 155.487Z" fill="#E5E5E5"/>
<path d="M140.903 155.487C140.903 157.257 139.326 159.028 137.749 159.028C136.171 159.028 134.594 157.257 134.594 155.487C134.594 153.716 136.171 151.945 137.749 151.945C139.326 151.355 140.903 153.126 140.903 155.487Z" fill="#E5E5E5"/>
<path d="M208.2 155.487C208.2 157.257 206.623 159.028 205.046 159.028C203.469 159.028 201.891 157.257 201.891 155.487C201.891 153.716 203.469 151.945 205.046 151.945C206.623 151.355 208.2 153.126 208.2 155.487Z" fill="#E5E5E5"/>
<path d="M274.972 155.487C274.972 157.257 273.394 159.028 271.817 159.028C270.24 159.028 268.663 157.257 268.663 155.487C268.663 153.716 270.24 151.945 271.817 151.945C273.394 151.355 274.972 153.126 274.972 155.487Z" fill="#E5E5E5"/>
<path d="M342.269 155.488C342.269 157.258 340.692 159.029 339.115 159.029C337.537 159.029 335.96 157.258 335.96 155.488C335.96 153.717 337.537 151.947 339.115 151.947C340.692 151.947 342.269 153.127 342.269 155.488Z" fill="#E5E5E5"/>
<path d="M409.566 155.488C409.566 157.258 407.989 159.029 406.411 159.029C404.834 159.029 403.257 157.258 403.257 155.488C403.257 153.717 404.834 151.947 406.411 151.947C407.989 151.947 409.566 153.127 409.566 155.488Z" fill="#E5E5E5"/>
<path d="M476.337 155.487C476.337 157.257 474.76 159.028 473.183 159.028C471.606 159.028 470.028 157.257 470.028 155.487C470.028 153.716 471.606 151.945 473.183 151.945C475.286 151.355 476.337 153.126 476.337 155.487Z" fill="#E5E5E5"/>
<path d="M543.635 155.487C543.635 157.257 542.057 159.028 540.48 159.028C538.903 159.028 537.325 157.257 537.325 155.487C537.325 153.716 538.903 151.945 540.48 151.945C542.057 151.355 543.635 153.126 543.635 155.487Z" fill="#E5E5E5"/>
<path d="M610.932 155.487C610.932 157.257 609.354 159.028 607.777 159.028C606.2 159.028 604.623 157.257 604.623 155.487C604.623 153.716 606.2 151.945 607.777 151.945C609.354 151.355 610.932 153.126 610.932 155.487Z" fill="#E5E5E5"/>
<path d="M678.229 155.487C678.229 157.257 676.651 159.028 675.074 159.028C673.497 159.028 671.919 157.257 671.919 155.487C671.919 153.716 673.497 151.945 675.074 151.945C676.651 151.355 678.229 153.126 678.229 155.487Z" fill="#E5E5E5"/>
<path d="M745 155.487C745 157.257 743.423 159.028 741.846 159.028C740.268 159.028 738.691 157.257 738.691 155.487C738.691 153.716 740.268 151.945 741.846 151.945C743.949 151.355 745 153.126 745 155.487Z" fill="#E5E5E5"/>
<path d="M6.3091 230.439C6.3091 232.21 4.73183 233.981 3.15455 233.981C1.57728 233.981 0 232.8 0 230.439C0 228.669 1.57728 226.898 3.15455 226.898C4.73183 226.898 6.3091 228.669 6.3091 230.439Z" fill="#E5E5E5"/>
<path d="M73.6062 230.439C73.6062 232.21 72.0289 233.981 70.4517 233.981C68.8744 233.981 67.2971 232.21 67.2971 230.439C67.2971 228.669 68.8744 226.898 70.4517 226.898C72.0289 226.898 73.6062 228.669 73.6062 230.439Z" fill="#E5E5E5"/>
<path d="M140.903 230.439C140.903 232.21 139.326 233.981 137.749 233.981C136.171 233.981 134.594 232.21 134.594 230.439C134.594 228.669 136.171 226.898 137.749 226.898C139.326 226.898 140.903 228.669 140.903 230.439Z" fill="#E5E5E5"/>
<path d="M208.2 230.439C208.2 232.21 206.623 233.981 205.046 233.981C203.469 233.981 201.891 232.21 201.891 230.439C201.891 228.669 203.469 226.898 205.046 226.898C206.623 226.898 208.2 228.669 208.2 230.439Z" fill="#E5E5E5"/>
<path d="M274.972 230.439C274.972 232.21 273.394 233.981 271.817 233.981C270.24 233.981 268.663 232.21 268.663 230.439C268.663 228.669 270.24 226.898 271.817 226.898C273.394 226.898 274.972 228.669 274.972 230.439Z" fill="#E5E5E5"/>
<path d="M342.269 230.439C342.269 232.21 340.692 233.981 339.115 233.981C337.537 233.981 335.96 232.21 335.96 230.439C335.96 228.669 337.537 226.898 339.115 226.898C340.692 226.898 342.269 228.669 342.269 230.439Z" fill="#E5E5E5"/>
<path d="M409.566 230.439C409.566 232.21 407.989 233.981 406.411 233.981C404.834 233.981 403.257 232.21 403.257 230.439C403.257 228.669 404.834 226.898 406.411 226.898C407.989 226.898 409.566 228.669 409.566 230.439Z" fill="#E5E5E5"/>
<path d="M476.337 230.439C476.337 232.21 474.76 233.981 473.183 233.981C471.606 233.981 470.028 232.21 470.028 230.439C470.028 228.669 471.606 226.898 473.183 226.898C475.286 226.898 476.337 228.669 476.337 230.439Z" fill="#E5E5E5"/>
<path d="M543.635 230.439C543.635 232.21 542.057 233.981 540.48 233.981C538.903 233.981 537.325 232.21 537.325 230.439C537.325 228.669 538.903 226.898 540.48 226.898C542.057 226.898 543.635 228.669 543.635 230.439Z" fill="#E5E5E5"/>
<path d="M610.932 230.439C610.932 232.21 609.354 233.981 607.777 233.981C606.2 233.981 604.623 232.21 604.623 230.439C604.623 228.669 606.2 226.898 607.777 226.898C609.354 226.898 610.932 228.669 610.932 230.439Z" fill="#E5E5E5"/>
<path d="M678.229 230.439C678.229 232.21 676.651 233.981 675.074 233.981C673.497 233.981 671.919 232.21 671.919 230.439C671.919 228.669 673.497 226.898 675.074 226.898C676.651 226.898 678.229 228.669 678.229 230.439Z" fill="#E5E5E5"/>
<path d="M745 230.439C745 232.21 743.423 233.981 741.846 233.981C740.268 233.981 738.691 232.21 738.691 230.439C738.691 228.669 740.268 226.898 741.846 226.898C743.949 226.898 745 228.669 745 230.439Z" fill="#E5E5E5"/>
<path d="M6.3091 305.982C6.3091 307.753 4.73183 309.523 3.15455 309.523C1.57728 309.523 0 307.753 0 305.982C0 304.211 1.57728 302.441 3.15455 302.441C4.73183 302.441 6.3091 304.211 6.3091 305.982Z" fill="#E5E5E5"/>
<path d="M73.6062 305.982C73.6062 307.753 72.0289 309.523 70.4517 309.523C68.8744 309.523 67.2971 307.753 67.2971 305.982C67.2971 304.211 68.8744 302.441 70.4517 302.441C72.0289 302.441 73.6062 304.211 73.6062 305.982Z" fill="#E5E5E5"/>
<path d="M140.903 305.982C140.903 307.753 139.326 309.523 137.749 309.523C136.171 309.523 134.594 307.753 134.594 305.982C134.594 304.211 136.171 302.441 137.749 302.441C139.326 302.441 140.903 304.211 140.903 305.982Z" fill="#E5E5E5"/>
<path d="M208.2 305.982C208.2 307.753 206.623 309.523 205.046 309.523C203.469 309.523 201.891 307.753 201.891 305.982C201.891 304.211 203.469 302.441 205.046 302.441C206.623 302.441 208.2 304.211 208.2 305.982Z" fill="#E5E5E5"/>
<path d="M274.972 305.982C274.972 307.753 273.394 309.523 271.817 309.523C270.24 309.523 268.663 307.753 268.663 305.982C268.663 304.211 270.24 302.441 271.817 302.441C273.394 302.441 274.972 304.211 274.972 305.982Z" fill="#E5E5E5"/>
<path d="M342.269 305.982C342.269 307.753 340.692 309.523 339.115 309.523C337.537 309.523 335.96 307.753 335.96 305.982C335.96 304.211 337.537 302.441 339.115 302.441C340.692 302.441 342.269 304.211 342.269 305.982Z" fill="#E5E5E5"/>
<path d="M409.566 305.982C409.566 307.753 407.989 309.523 406.411 309.523C404.834 309.523 403.257 307.753 403.257 305.982C403.257 304.211 404.834 302.441 406.411 302.441C407.989 302.441 409.566 304.211 409.566 305.982Z" fill="#E5E5E5"/>
<path d="M476.337 305.982C476.337 307.753 474.76 309.523 473.183 309.523C471.606 309.523 470.028 307.753 470.028 305.982C470.028 304.211 471.606 302.441 473.183 302.441C475.286 302.441 476.337 304.211 476.337 305.982Z" fill="#E5E5E5"/>
<path d="M543.635 305.982C543.635 307.753 542.057 309.523 540.48 309.523C538.903 309.523 537.325 307.753 537.325 305.982C537.325 304.211 538.903 302.441 540.48 302.441C542.057 302.441 543.635 304.211 543.635 305.982Z" fill="#E5E5E5"/>
<path d="M610.932 305.982C610.932 307.753 609.354 309.523 607.777 309.523C606.2 309.523 604.623 307.753 604.623 305.982C604.623 304.211 606.2 302.441 607.777 302.441C609.354 302.441 610.932 304.211 610.932 305.982Z" fill="#E5E5E5"/>
<path d="M678.229 305.982C678.229 307.753 676.651 309.523 675.074 309.523C673.497 309.523 671.919 307.753 671.919 305.982C671.919 304.211 673.497 302.441 675.074 302.441C676.651 302.441 678.229 304.211 678.229 305.982Z" fill="#E5E5E5"/>
<path d="M745 305.982C745 307.753 743.423 309.523 741.846 309.523C740.268 309.523 738.691 307.753 738.691 305.982C738.691 304.211 740.268 302.441 741.846 302.441C743.949 302.441 745 304.211 745 305.982Z" fill="#E5E5E5"/>
<path d="M6.3091 381.523C6.3091 383.294 4.73183 385.064 3.15455 385.064C1.57728 385.064 0 383.294 0 381.523C0 379.753 1.57728 377.982 3.15455 377.982C4.73183 377.982 6.3091 379.163 6.3091 381.523Z" fill="#E5E5E5"/>
<path d="M73.6062 381.523C73.6062 383.294 72.0289 385.064 70.4517 385.064C68.8744 385.064 67.2971 383.294 67.2971 381.523C67.2971 379.753 68.8744 377.982 70.4517 377.982C72.0289 377.982 73.6062 379.163 73.6062 381.523Z" fill="#E5E5E5"/>
<path d="M140.903 381.523C140.903 383.294 139.326 385.064 137.749 385.064C136.171 385.064 134.594 383.294 134.594 381.523C134.594 379.753 136.171 377.982 137.749 377.982C139.326 377.982 140.903 379.163 140.903 381.523Z" fill="#E5E5E5"/>
<path d="M208.2 381.523C208.2 383.294 206.623 385.064 205.046 385.064C203.469 385.064 201.891 383.294 201.891 381.523C201.891 379.753 203.469 377.982 205.046 377.982C206.623 377.982 208.2 379.163 208.2 381.523Z" fill="#E5E5E5"/>
<path d="M274.972 381.523C274.972 383.294 273.394 385.064 271.817 385.064C270.24 385.064 268.663 383.294 268.663 381.523C268.663 379.753 270.24 377.982 271.817 377.982C273.394 377.982 274.972 379.163 274.972 381.523Z" fill="#E5E5E5"/>
<path d="M342.269 381.523C342.269 383.294 340.692 385.064 339.115 385.064C337.537 385.064 335.96 383.294 335.96 381.523C335.96 379.753 337.537 377.982 339.115 377.982C340.692 377.982 342.269 379.163 342.269 381.523Z" fill="#E5E5E5"/>
<path d="M409.566 381.523C409.566 383.294 407.989 385.064 406.411 385.064C404.834 385.064 403.257 383.294 403.257 381.523C403.257 379.753 404.834 377.982 406.411 377.982C407.989 377.982 409.566 379.163 409.566 381.523Z" fill="#E5E5E5"/>
<path d="M476.337 381.523C476.337 383.294 474.76 385.064 473.183 385.064C471.606 385.064 470.028 383.294 470.028 381.523C470.028 379.753 471.606 377.982 473.183 377.982C475.286 377.982 476.337 379.163 476.337 381.523Z" fill="#E5E5E5"/>
<path d="M543.635 381.523C543.635 383.294 542.057 385.064 540.48 385.064C538.903 385.064 537.325 383.294 537.325 381.523C537.325 379.753 538.903 377.982 540.48 377.982C542.057 377.982 543.635 379.163 543.635 381.523Z" fill="#E5E5E5"/>
<path d="M610.932 381.523C610.932 383.294 609.354 385.064 607.777 385.064C606.2 385.064 604.623 383.294 604.623 381.523C604.623 379.753 606.2 377.982 607.777 377.982C609.354 377.982 610.932 379.163 610.932 381.523Z" fill="#E5E5E5"/>
<path d="M678.229 381.523C678.229 383.294 676.651 385.064 675.074 385.064C673.497 385.064 671.919 383.294 671.919 381.523C671.919 379.753 673.497 377.982 675.074 377.982C676.651 377.982 678.229 379.163 678.229 381.523Z" fill="#E5E5E5"/>
<path d="M745 381.523C745 383.294 743.423 385.064 741.846 385.064C740.268 385.064 738.691 383.294 738.691 381.523C738.691 379.753 740.268 377.982 741.846 377.982C743.949 377.982 745 379.163 745 381.523Z" fill="#E5E5E5"/>
<path d="M6.3091 457.067C6.3091 458.837 4.73183 460.608 3.15455 460.608C1.57728 460.608 0 458.837 0 457.067C0 455.296 1.57728 453.525 3.15455 453.525C4.73183 453.525 6.3091 454.706 6.3091 457.067Z" fill="#E5E5E5"/>
<path d="M73.6062 457.067C73.6062 458.838 72.0289 460.608 70.4517 460.608C68.8744 460.608 67.2971 458.838 67.2971 457.067C67.2971 455.297 68.8744 453.526 70.4517 453.526C72.0289 452.936 73.6062 454.706 73.6062 457.067Z" fill="#E5E5E5"/>
<path d="M140.903 457.067C140.903 458.838 139.326 460.608 137.749 460.608C136.171 460.608 134.594 458.838 134.594 457.067C134.594 455.297 136.171 453.526 137.749 453.526C139.326 452.936 140.903 454.706 140.903 457.067Z" fill="#E5E5E5"/>
<path d="M208.2 457.067C208.2 458.838 206.623 460.608 205.046 460.608C203.469 460.608 201.891 458.838 201.891 457.067C201.891 455.297 203.469 453.526 205.046 453.526C206.623 452.936 208.2 454.706 208.2 457.067Z" fill="#E5E5E5"/>
<path d="M274.972 457.067C274.972 458.838 273.394 460.608 271.817 460.608C270.24 460.608 268.663 458.838 268.663 457.067C268.663 455.297 270.24 453.526 271.817 453.526C273.394 452.936 274.972 454.706 274.972 457.067Z" fill="#E5E5E5"/>
<path d="M342.269 457.067C342.269 458.837 340.692 460.608 339.115 460.608C337.537 460.608 335.96 458.837 335.96 457.067C335.96 455.296 337.537 453.525 339.115 453.525C340.692 453.525 342.269 454.706 342.269 457.067Z" fill="#E5E5E5"/>
<path d="M409.566 457.067C409.566 458.837 407.989 460.608 406.411 460.608C404.834 460.608 403.257 458.837 403.257 457.067C403.257 455.296 404.834 453.525 406.411 453.525C407.989 453.525 409.566 454.706 409.566 457.067Z" fill="#E5E5E5"/>
<path d="M476.337 457.067C476.337 458.838 474.76 460.608 473.183 460.608C471.606 460.608 470.028 458.838 470.028 457.067C470.028 455.297 471.606 453.526 473.183 453.526C475.286 452.936 476.337 454.706 476.337 457.067Z" fill="#E5E5E5"/>
<path d="M543.635 457.067C543.635 458.838 542.057 460.608 540.48 460.608C538.903 460.608 537.325 458.838 537.325 457.067C537.325 455.297 538.903 453.526 540.48 453.526C542.057 452.936 543.635 454.706 543.635 457.067Z" fill="#E5E5E5"/>
<path d="M610.932 457.067C610.932 458.838 609.354 460.608 607.777 460.608C606.2 460.608 604.623 458.838 604.623 457.067C604.623 455.297 606.2 453.526 607.777 453.526C609.354 452.936 610.932 454.706 610.932 457.067Z" fill="#E5E5E5"/>
<path d="M678.229 457.067C678.229 458.838 676.651 460.608 675.074 460.608C673.497 460.608 671.919 458.838 671.919 457.067C671.919 455.297 673.497 453.526 675.074 453.526C676.651 452.936 678.229 454.706 678.229 457.067Z" fill="#E5E5E5"/>
<path d="M745 457.067C745 458.838 743.423 460.608 741.846 460.608C740.268 460.608 738.691 458.838 738.691 457.067C738.691 455.297 740.268 453.526 741.846 453.526C743.949 452.936 745 454.706 745 457.067Z" fill="#E5E5E5"/>
<path d="M6.3091 532.019C6.3091 533.789 4.73183 535.56 3.15455 535.56C1.57728 535.56 0 534.379 0 532.019C0 530.248 1.57728 528.478 3.15455 528.478C4.73183 528.478 6.3091 530.248 6.3091 532.019Z" fill="#E5E5E5"/>
<path d="M73.6062 532.019C73.6062 533.789 72.0289 535.56 70.4517 535.56C68.8744 535.56 67.2971 533.789 67.2971 532.019C67.2971 530.248 68.8744 528.478 70.4517 528.478C72.0289 528.478 73.6062 530.248 73.6062 532.019Z" fill="#E5E5E5"/>
<path d="M140.903 532.019C140.903 533.789 139.326 535.56 137.749 535.56C136.171 535.56 134.594 533.789 134.594 532.019C134.594 530.248 136.171 528.478 137.749 528.478C139.326 528.478 140.903 530.248 140.903 532.019Z" fill="#E5E5E5"/>
<path d="M208.2 532.019C208.2 533.789 206.623 535.56 205.046 535.56C203.469 535.56 201.891 533.789 201.891 532.019C201.891 530.248 203.469 528.478 205.046 528.478C206.623 528.478 208.2 530.248 208.2 532.019Z" fill="#E5E5E5"/>
<path d="M274.972 532.019C274.972 533.789 273.394 535.56 271.817 535.56C270.24 535.56 268.663 533.789 268.663 532.019C268.663 530.248 270.24 528.478 271.817 528.478C273.394 528.478 274.972 530.248 274.972 532.019Z" fill="#E5E5E5"/>
<path d="M342.269 532.019C342.269 533.789 340.692 535.56 339.115 535.56C337.537 535.56 335.96 533.789 335.96 532.019C335.96 530.248 337.537 528.478 339.115 528.478C340.692 528.478 342.269 530.248 342.269 532.019Z" fill="#E5E5E5"/>
<path d="M409.566 532.019C409.566 533.789 407.989 535.56 406.411 535.56C404.834 535.56 403.257 533.789 403.257 532.019C403.257 530.248 404.834 528.478 406.411 528.478C407.989 528.478 409.566 530.248 409.566 532.019Z" fill="#E5E5E5"/>
<path d="M476.337 532.019C476.337 533.789 474.76 535.56 473.183 535.56C471.606 535.56 470.028 533.789 470.028 532.019C470.028 530.248 471.606 528.478 473.183 528.478C475.286 528.478 476.337 530.248 476.337 532.019Z" fill="#E5E5E5"/>
<path d="M543.635 532.019C543.635 533.789 542.057 535.56 540.48 535.56C538.903 535.56 537.325 533.789 537.325 532.019C537.325 530.248 538.903 528.478 540.48 528.478C542.057 528.478 543.635 530.248 543.635 532.019Z" fill="#E5E5E5"/>
<path d="M610.932 532.019C610.932 533.789 609.354 535.56 607.777 535.56C606.2 535.56 604.623 533.789 604.623 532.019C604.623 530.248 606.2 528.478 607.777 528.478C609.354 528.478 610.932 530.248 610.932 532.019Z" fill="#E5E5E5"/>
<path d="M678.229 532.019C678.229 533.789 676.651 535.56 675.074 535.56C673.497 535.56 671.919 533.789 671.919 532.019C671.919 530.248 673.497 528.478 675.074 528.478C676.651 528.478 678.229 530.248 678.229 532.019Z" fill="#E5E5E5"/>
<path d="M745 532.019C745 533.789 743.423 535.56 741.846 535.56C740.268 535.56 738.691 533.789 738.691 532.019C738.691 530.248 740.268 528.478 741.846 528.478C743.949 528.478 745 530.248 745 532.019Z" fill="#E5E5E5"/>
<path d="M6.3091 607.561C6.3091 609.332 4.73183 611.102 3.15455 611.102C1.57728 611.102 0 609.332 0 607.561C0 605.791 1.57728 604.02 3.15455 604.02C4.73183 604.02 6.3091 605.791 6.3091 607.561Z" fill="#E5E5E5"/>
<path d="M73.6062 607.561C73.6062 609.332 72.0289 611.102 70.4517 611.102C68.8744 611.102 67.2971 609.332 67.2971 607.561C67.2971 605.791 68.8744 604.02 70.4517 604.02C72.0289 604.02 73.6062 605.791 73.6062 607.561Z" fill="#E5E5E5"/>
<path d="M140.903 607.561C140.903 609.332 139.326 611.102 137.749 611.102C136.171 611.102 134.594 609.332 134.594 607.561C134.594 605.791 136.171 604.02 137.749 604.02C139.326 604.02 140.903 605.791 140.903 607.561Z" fill="#E5E5E5"/>
<path d="M208.2 607.561C208.2 609.332 206.623 611.102 205.046 611.102C203.469 611.102 201.891 609.332 201.891 607.561C201.891 605.791 203.469 604.02 205.046 604.02C206.623 604.02 208.2 605.791 208.2 607.561Z" fill="#E5E5E5"/>
<path d="M274.972 607.561C274.972 609.332 273.394 611.102 271.817 611.102C270.24 611.102 268.663 609.332 268.663 607.561C268.663 605.791 270.24 604.02 271.817 604.02C273.394 604.02 274.972 605.791 274.972 607.561Z" fill="#E5E5E5"/>
<path d="M342.269 607.561C342.269 609.332 340.692 611.102 339.115 611.102C337.537 611.102 335.96 609.332 335.96 607.561C335.96 605.791 337.537 604.02 339.115 604.02C340.692 604.02 342.269 605.791 342.269 607.561Z" fill="#E5E5E5"/>
<path d="M409.566 607.561C409.566 609.332 407.989 611.102 406.411 611.102C404.834 611.102 403.257 609.332 403.257 607.561C403.257 605.791 404.834 604.02 406.411 604.02C407.989 604.02 409.566 605.791 409.566 607.561Z" fill="#E5E5E5"/>
<path d="M476.337 607.561C476.337 609.332 474.76 611.102 473.183 611.102C471.606 611.102 470.028 609.332 470.028 607.561C470.028 605.791 471.606 604.02 473.183 604.02C475.286 604.02 476.337 605.791 476.337 607.561Z" fill="#E5E5E5"/>
<path d="M543.635 607.561C543.635 609.332 542.057 611.102 540.48 611.102C538.903 611.102 537.325 609.332 537.325 607.561C537.325 605.791 538.903 604.02 540.48 604.02C542.057 604.02 543.635 605.791 543.635 607.561Z" fill="#E5E5E5"/>
<path d="M610.932 607.561C610.932 609.332 609.354 611.102 607.777 611.102C606.2 611.102 604.623 609.332 604.623 607.561C604.623 605.791 606.2 604.02 607.777 604.02C609.354 604.02 610.932 605.791 610.932 607.561Z" fill="#E5E5E5"/>
<path d="M678.229 607.561C678.229 609.332 676.651 611.102 675.074 611.102C673.497 611.102 671.919 609.332 671.919 607.561C671.919 605.791 673.497 604.02 675.074 604.02C676.651 604.02 678.229 605.791 678.229 607.561Z" fill="#E5E5E5"/>
<path d="M745 607.561C745 609.332 743.423 611.102 741.846 611.102C740.268 611.102 738.691 609.332 738.691 607.561C738.691 605.791 740.268 604.02 741.846 604.02C743.949 604.02 745 605.791 745 607.561Z" fill="#E5E5E5"/>
<path d="M6.3091 683.104C6.3091 684.874 4.73183 686.645 3.15455 686.645C1.57728 686.645 0 684.874 0 683.104C0 681.333 1.57728 679.562 3.15455 679.562C4.73183 679.562 6.3091 680.743 6.3091 683.104Z" fill="#E5E5E5"/>
<path d="M73.6062 683.104C73.6062 684.874 72.0289 686.645 70.4517 686.645C68.8744 686.645 67.2971 684.874 67.2971 683.104C67.2971 681.333 68.8744 679.562 70.4517 679.562C72.0289 679.562 73.6062 680.743 73.6062 683.104Z" fill="#E5E5E5"/>
<path d="M140.903 683.104C140.903 684.874 139.326 686.645 137.749 686.645C136.171 686.645 134.594 684.874 134.594 683.104C134.594 681.333 136.171 679.562 137.749 679.562C139.326 679.562 140.903 680.743 140.903 683.104Z" fill="#E5E5E5"/>
<path d="M208.2 683.104C208.2 684.874 206.623 686.645 205.046 686.645C203.469 686.645 201.891 684.874 201.891 683.104C201.891 681.333 203.469 679.562 205.046 679.562C206.623 679.562 208.2 680.743 208.2 683.104Z" fill="#E5E5E5"/>
<path d="M274.972 683.104C274.972 684.874 273.394 686.645 271.817 686.645C270.24 686.645 268.663 684.874 268.663 683.104C268.663 681.333 270.24 679.562 271.817 679.562C273.394 679.562 274.972 680.743 274.972 683.104Z" fill="#E5E5E5"/>
<path d="M342.269 683.104C342.269 684.874 340.692 686.645 339.115 686.645C337.537 686.645 335.96 684.874 335.96 683.104C335.96 681.333 337.537 679.562 339.115 679.562C340.692 679.562 342.269 680.743 342.269 683.104Z" fill="#E5E5E5"/>
<path d="M409.566 683.104C409.566 684.874 407.989 686.645 406.411 686.645C404.834 686.645 403.257 684.874 403.257 683.104C403.257 681.333 404.834 679.562 406.411 679.562C407.989 679.562 409.566 680.743 409.566 683.104Z" fill="#E5E5E5"/>
<path d="M476.337 683.104C476.337 684.874 474.76 686.645 473.183 686.645C471.606 686.645 470.028 684.874 470.028 683.104C470.028 681.333 471.606 679.562 473.183 679.562C475.286 679.562 476.337 680.743 476.337 683.104Z" fill="#E5E5E5"/>
<path d="M543.635 683.104C543.635 684.874 542.057 686.645 540.48 686.645C538.903 686.645 537.325 684.874 537.325 683.104C537.325 681.333 538.903 679.562 540.48 679.562C542.057 679.562 543.635 680.743 543.635 683.104Z" fill="#E5E5E5"/>
<path d="M610.932 683.104C610.932 684.874 609.354 686.645 607.777 686.645C606.2 686.645 604.623 684.874 604.623 683.104C604.623 681.333 606.2 679.562 607.777 679.562C609.354 679.562 610.932 680.743 610.932 683.104Z" fill="#E5E5E5"/>
<path d="M678.229 683.104C678.229 684.874 676.651 686.645 675.074 686.645C673.497 686.645 671.919 684.874 671.919 683.104C671.919 681.333 673.497 679.562 675.074 679.562C676.651 679.562 678.229 680.743 678.229 683.104Z" fill="#E5E5E5"/>
<path d="M745 683.104C745 684.874 743.423 686.645 741.846 686.645C740.268 686.645 738.691 684.874 738.691 683.104C738.691 681.333 740.268 679.562 741.846 679.562C743.949 679.562 745 680.743 745 683.104Z" fill="#E5E5E5"/>
<path d="M6.3091 758.056C6.3091 759.826 4.73183 761.597 3.15455 761.597C1.57728 761.597 0 760.416 0 758.056C0 756.285 1.57728 754.515 3.15455 754.515C4.73183 754.515 6.3091 756.285 6.3091 758.056Z" fill="#E5E5E5"/>
<path d="M73.6062 758.056C73.6062 759.826 72.0289 761.597 70.4517 761.597C68.8744 761.597 67.2971 759.826 67.2971 758.056C67.2971 756.285 68.8744 754.515 70.4517 754.515C72.0289 754.515 73.6062 756.285 73.6062 758.056Z" fill="#E5E5E5"/>
<path d="M140.903 758.056C140.903 759.826 139.326 761.597 137.749 761.597C136.171 761.597 134.594 759.826 134.594 758.056C134.594 756.285 136.171 754.515 137.749 754.515C139.326 754.515 140.903 756.285 140.903 758.056Z" fill="#E5E5E5"/>
<path d="M208.2 758.056C208.2 759.826 206.623 761.597 205.046 761.597C203.469 761.597 201.891 759.826 201.891 758.056C201.891 756.285 203.469 754.515 205.046 754.515C206.623 754.515 208.2 756.285 208.2 758.056Z" fill="#E5E5E5"/>
<path d="M274.972 758.056C274.972 759.826 273.394 761.597 271.817 761.597C270.24 761.597 268.663 759.826 268.663 758.056C268.663 756.285 270.24 754.515 271.817 754.515C273.394 754.515 274.972 756.285 274.972 758.056Z" fill="#E5E5E5"/>
<path d="M342.269 758.056C342.269 759.826 340.692 761.597 339.115 761.597C337.537 761.597 335.96 759.826 335.96 758.056C335.96 756.285 337.537 754.515 339.115 754.515C340.692 754.515 342.269 756.285 342.269 758.056Z" fill="#E5E5E5"/>
<path d="M409.566 758.056C409.566 759.826 407.989 761.597 406.411 761.597C404.834 761.597 403.257 759.826 403.257 758.056C403.257 756.285 404.834 754.515 406.411 754.515C407.989 754.515 409.566 756.285 409.566 758.056Z" fill="#E5E5E5"/>
<path d="M476.337 758.056C476.337 759.826 474.76 761.597 473.183 761.597C471.606 761.597 470.028 759.826 470.028 758.056C470.028 756.285 471.606 754.515 473.183 754.515C475.286 754.515 476.337 756.285 476.337 758.056Z" fill="#E5E5E5"/>
<path d="M543.635 758.056C543.635 759.826 542.057 761.597 540.48 761.597C538.903 761.597 537.325 759.826 537.325 758.056C537.325 756.285 538.903 754.515 540.48 754.515C542.057 754.515 543.635 756.285 543.635 758.056Z" fill="#E5E5E5"/>
<path d="M610.932 758.056C610.932 759.826 609.354 761.597 607.777 761.597C606.2 761.597 604.623 759.826 604.623 758.056C604.623 756.285 606.2 754.515 607.777 754.515C609.354 754.515 610.932 756.285 610.932 758.056Z" fill="#E5E5E5"/>
<path d="M678.229 758.056C678.229 759.826 676.651 761.597 675.074 761.597C673.497 761.597 671.919 759.826 671.919 758.056C671.919 756.285 673.497 754.515 675.074 754.515C676.651 754.515 678.229 756.285 678.229 758.056Z" fill="#E5E5E5"/>
<path d="M745 758.056C745 759.826 743.423 761.597 741.846 761.597C740.268 761.597 738.691 759.826 738.691 758.056C738.691 756.285 740.268 754.515 741.846 754.515C743.949 754.515 745 756.285 745 758.056Z" fill="#E5E5E5"/>
<path d="M6.3091 833.598C6.3091 835.369 4.73183 837.139 3.15455 837.139C1.57728 837.139 0 835.959 0 833.598C0 831.828 1.57728 830.057 3.15455 830.057C4.73183 830.057 6.3091 831.828 6.3091 833.598Z" fill="#E5E5E5"/>
<path d="M73.6062 833.598C73.6062 835.369 72.0289 837.139 70.4517 837.139C68.8744 837.139 67.2971 835.369 67.2971 833.598C67.2971 831.828 68.8744 830.057 70.4517 830.057C72.0289 830.057 73.6062 831.828 73.6062 833.598Z" fill="#E5E5E5"/>
<path d="M140.903 833.598C140.903 835.369 139.326 837.139 137.749 837.139C136.171 837.139 134.594 835.369 134.594 833.598C134.594 831.828 136.171 830.057 137.749 830.057C139.326 830.057 140.903 831.828 140.903 833.598Z" fill="#E5E5E5"/>
<path d="M208.2 833.598C208.2 835.369 206.623 837.139 205.046 837.139C203.469 837.139 201.891 835.369 201.891 833.598C201.891 831.828 203.469 830.057 205.046 830.057C206.623 830.057 208.2 831.828 208.2 833.598Z" fill="#E5E5E5"/>
<path d="M274.972 833.598C274.972 835.369 273.394 837.139 271.817 837.139C270.24 837.139 268.663 835.369 268.663 833.598C268.663 831.828 270.24 830.057 271.817 830.057C273.394 830.057 274.972 831.828 274.972 833.598Z" fill="#E5E5E5"/>
<path d="M342.269 833.598C342.269 835.369 340.692 837.139 339.115 837.139C337.537 837.139 335.96 835.369 335.96 833.598C335.96 831.828 337.537 830.057 339.115 830.057C340.692 830.057 342.269 831.828 342.269 833.598Z" fill="#E5E5E5"/>
<path d="M409.566 833.598C409.566 835.369 407.989 837.139 406.411 837.139C404.834 837.139 403.257 835.369 403.257 833.598C403.257 831.828 404.834 830.057 406.411 830.057C407.989 830.057 409.566 831.828 409.566 833.598Z" fill="#E5E5E5"/>
<path d="M476.337 833.598C476.337 835.369 474.76 837.139 473.183 837.139C471.606 837.139 470.028 835.369 470.028 833.598C470.028 831.828 471.606 830.057 473.183 830.057C475.286 830.057 476.337 831.828 476.337 833.598Z" fill="#E5E5E5"/>
<path d="M543.635 833.598C543.635 835.369 542.057 837.139 540.48 837.139C538.903 837.139 537.325 835.369 537.325 833.598C537.325 831.828 538.903 830.057 540.48 830.057C542.057 830.057 543.635 831.828 543.635 833.598Z" fill="#E5E5E5"/>
<path d="M610.932 833.598C610.932 835.369 609.354 837.139 607.777 837.139C606.2 837.139 604.623 835.369 604.623 833.598C604.623 831.828 606.2 830.057 607.777 830.057C609.354 830.057 610.932 831.828 610.932 833.598Z" fill="#E5E5E5"/>
<path d="M678.229 833.598C678.229 835.369 676.651 837.139 675.074 837.139C673.497 837.139 671.919 835.369 671.919 833.598C671.919 831.828 673.497 830.057 675.074 830.057C676.651 830.057 678.229 831.828 678.229 833.598Z" fill="#E5E5E5"/>
<path d="M745 833.598C745 835.369 743.423 837.139 741.846 837.139C740.268 837.139 738.691 835.369 738.691 833.598C738.691 831.828 740.268 830.057 741.846 830.057C743.949 830.057 745 831.828 745 833.598Z" fill="#E5E5E5"/>
</svg>
