<svg width="30" height="34" viewBox="0 0 30 34" fill="none" xmlns="http://www.w3.org/2000/svg">
<path d="M4.52464 0.433303C3.64956 -0.0939679 2.60664 -0.141117 1.69707 0.297833L16.9475 15.5953L21.9339 10.5809L4.52464 0.433303ZM0.295893 1.71363C0.103496 2.12137 0 2.57493 0 3.04177V31.0243C0 31.4931 0.10416 31.9401 0.298546 32.3392L15.543 17.0078L0.295893 1.71363ZM16.9495 18.4183L1.72367 33.7311C2.12771 33.9183 2.55761 34 2.98686 34C3.51694 34 4.0457 33.8732 4.5247 33.585L21.9373 23.422L16.9495 18.4183ZM28.5643 14.4458C28.5584 14.4418 28.5517 14.4379 28.5457 14.4345L23.7119 11.6169L18.3534 17.0058L23.7153 22.3841C23.7153 22.3841 28.5584 19.5578 28.5643 19.5545C29.4633 19.008 30 18.053 30 16.9998C30 15.9466 29.4633 14.9917 28.5643 14.4458Z" fill="white"/>
</svg>
