<svg width="377" height="635" viewBox="0 0 377 635" fill="none" xmlns="http://www.w3.org/2000/svg">
<path d="M4.15848 3.55507C4.15848 5.3434 3.62865 6.23757 2.56899 6.23757C1.50932 6.23757 0.979492 5.3434 0.979492 3.55507C0.979492 2.21381 1.77424 0.872559 2.56899 0.872559C3.36373 0.872559 4.15848 2.21381 4.15848 3.55507Z" fill="#E5E5E5"/>
<path d="M38.0677 3.55507C38.0677 4.89632 37.2729 6.23757 36.4782 6.23757C35.6834 6.23757 34.8887 4.89632 34.8887 3.55507C34.8887 2.21381 35.4185 0.872559 36.4782 0.872559C37.2729 0.872559 38.0677 2.21381 38.0677 3.55507Z" fill="#E5E5E5"/>
<path d="M71.9764 3.55507C71.9764 4.89632 71.1816 6.23757 70.3869 6.23757C69.5921 6.23757 68.7974 4.89632 68.7974 3.55507C68.7974 2.21381 69.5921 0.872559 70.3869 0.872559C71.1816 0.872559 71.9764 2.21381 71.9764 3.55507Z" fill="#E5E5E5"/>
<path d="M105.885 3.55507C105.885 4.89632 105.091 6.23757 104.296 6.23757C103.501 6.23757 102.707 4.89632 102.707 3.55507C102.707 2.21381 103.501 0.872559 104.296 0.872559C105.091 0.872559 105.885 2.21381 105.885 3.55507Z" fill="#E5E5E5"/>
<path d="M139.529 3.55507C139.529 4.89632 138.734 6.23757 137.94 6.23757C137.145 6.23757 136.35 4.89632 136.35 3.55507C136.35 2.21381 137.145 0.872559 137.94 0.872559C138.734 0.872559 139.529 2.21381 139.529 3.55507Z" fill="#E5E5E5"/>
<path d="M173.439 3.55507C173.439 4.89632 172.644 6.23757 171.85 6.23757C171.055 6.23757 170.26 5.3434 170.26 3.55507C170.26 2.21381 171.055 0.872559 171.85 0.872559C172.644 0.872559 173.439 2.21381 173.439 3.55507Z" fill="#E5E5E5"/>
<path d="M207.348 3.55507C207.348 4.89632 206.553 6.23757 205.758 6.23757C204.963 6.23757 203.904 5.3434 203.904 3.55507C203.904 2.21381 204.699 0.872559 205.493 0.872559C206.288 0.872559 207.348 2.21381 207.348 3.55507Z" fill="#E5E5E5"/>
<path d="M240.991 3.55507C240.991 4.89632 240.197 6.23757 239.402 6.23757C238.607 6.23757 237.812 4.89632 237.812 3.55507C237.812 2.21381 238.607 0.872559 239.402 0.872559C240.462 0.872559 240.991 2.21381 240.991 3.55507Z" fill="#E5E5E5"/>
<path d="M274.901 3.55507C274.901 4.89632 274.106 6.23757 273.311 6.23757C272.516 6.23757 271.722 4.89632 271.722 3.55507C271.722 2.21381 272.516 0.872559 273.311 0.872559C274.106 0.872559 274.901 2.21381 274.901 3.55507Z" fill="#E5E5E5"/>
<path d="M308.81 3.55507C308.81 4.89632 308.015 6.23757 307.22 6.23757C306.426 6.23757 305.631 4.89632 305.631 3.55507C305.631 2.21381 306.426 0.872559 307.22 0.872559C308.015 0.872559 308.81 2.21381 308.81 3.55507Z" fill="#E5E5E5"/>
<path d="M342.719 3.55507C342.719 4.89632 341.924 6.23757 341.129 6.23757C340.335 6.23757 339.54 4.89632 339.54 3.55507C339.54 2.21381 340.335 0.872559 341.129 0.872559C341.924 0.872559 342.719 2.21381 342.719 3.55507Z" fill="#E5E5E5"/>
<path d="M376.363 3.55507C376.363 4.89632 375.568 6.23757 374.774 6.23757C373.979 6.23757 373.184 4.89632 373.184 3.55507C373.184 2.21381 373.979 0.872559 374.774 0.872559C375.833 0.872559 376.363 2.21381 376.363 3.55507Z" fill="#E5E5E5"/>
<path d="M4.15848 60.7821C4.15848 62.1234 3.62865 63.4646 2.56899 63.4646C1.50932 63.4646 0.979492 62.1234 0.979492 60.7821C0.979492 59.4409 1.77424 58.0996 2.56899 58.0996C3.36373 58.0996 4.15848 58.9938 4.15848 60.7821Z" fill="#E5E5E5"/>
<path d="M38.0677 60.7821C38.0677 62.1234 37.2729 63.4646 36.4782 63.4646C35.6834 63.4646 34.8887 62.1234 34.8887 60.7821C34.8887 59.4409 35.6834 58.0996 36.4782 58.0996C37.2729 58.0996 38.0677 58.9938 38.0677 60.7821Z" fill="#E5E5E5"/>
<path d="M71.9764 60.7821C71.9764 62.1234 71.1816 63.4646 70.3869 63.4646C69.5921 63.4646 68.7974 62.1234 68.7974 60.7821C68.7974 59.4409 69.5921 58.0996 70.3869 58.0996C71.1816 58.0996 71.9764 58.9938 71.9764 60.7821Z" fill="#E5E5E5"/>
<path d="M105.885 60.7821C105.885 62.1234 105.091 63.4646 104.296 63.4646C103.501 63.4646 102.707 62.1234 102.707 60.7821C102.707 59.4409 103.501 58.0996 104.296 58.0996C105.091 58.0996 105.885 58.9938 105.885 60.7821Z" fill="#E5E5E5"/>
<path d="M139.529 60.7821C139.529 62.1234 138.734 63.4646 137.94 63.4646C137.145 63.4646 136.35 62.1234 136.35 60.7821C136.35 59.4409 137.145 58.0996 137.94 58.0996C138.734 58.0996 139.529 58.9938 139.529 60.7821Z" fill="#E5E5E5"/>
<path d="M173.439 60.7821C173.439 62.1234 172.644 63.4646 171.85 63.4646C171.055 63.4646 170.26 62.1234 170.26 60.7821C170.26 59.4409 171.055 58.0996 171.85 58.0996C172.644 58.0996 173.439 58.9938 173.439 60.7821Z" fill="#E5E5E5"/>
<path d="M207.348 60.7821C207.348 62.1234 206.553 63.4646 205.758 63.4646C204.963 63.4646 204.168 62.1234 204.168 60.7821C204.168 59.4409 204.963 58.0996 205.758 58.0996C206.553 58.0996 207.348 58.9938 207.348 60.7821Z" fill="#E5E5E5"/>
<path d="M240.991 60.7821C240.991 62.1234 240.197 63.4646 239.402 63.4646C238.607 63.4646 237.812 62.1234 237.812 60.7821C237.812 59.4409 238.607 58.0996 239.402 58.0996C240.462 58.0996 240.991 58.9938 240.991 60.7821Z" fill="#E5E5E5"/>
<path d="M274.901 60.7821C274.901 62.1234 274.106 63.4646 273.311 63.4646C272.516 63.4646 271.722 62.1234 271.722 60.7821C271.722 59.4409 272.516 58.0996 273.311 58.0996C274.106 58.0996 274.901 58.9938 274.901 60.7821Z" fill="#E5E5E5"/>
<path d="M308.81 60.7821C308.81 62.1234 308.015 63.4646 307.22 63.4646C306.426 63.4646 305.631 62.1234 305.631 60.7821C305.631 59.4409 306.426 58.0996 307.22 58.0996C308.015 58.0996 308.81 58.9938 308.81 60.7821Z" fill="#E5E5E5"/>
<path d="M342.719 60.7821C342.719 62.1234 341.924 63.4646 341.129 63.4646C340.335 63.4646 339.54 62.1234 339.54 60.7821C339.54 59.4409 340.335 58.0996 341.129 58.0996C341.924 58.0996 342.719 58.9938 342.719 60.7821Z" fill="#E5E5E5"/>
<path d="M376.362 60.7821C376.362 62.1234 375.568 63.4646 374.773 63.4646C373.978 63.4646 373.184 62.1234 373.184 60.7821C373.184 59.4409 373.978 58.0996 374.773 58.0996C375.833 58.0996 376.362 58.9938 376.362 60.7821Z" fill="#E5E5E5"/>
<path d="M4.15848 118.009C4.15848 119.35 3.36373 120.692 2.56899 120.692C1.77424 120.692 0.979492 119.35 0.979492 118.009C0.979492 116.668 1.77424 115.327 2.56899 115.327C3.36373 115.327 4.15848 116.221 4.15848 118.009Z" fill="#E5E5E5"/>
<path d="M38.0677 118.008C38.0677 119.35 37.2729 120.691 36.4782 120.691C35.6834 120.691 34.8887 119.35 34.8887 118.008C34.8887 116.667 35.6834 115.326 36.4782 115.326C37.2729 114.879 38.0677 116.22 38.0677 118.008Z" fill="#E5E5E5"/>
<path d="M71.9764 118.008C71.9764 119.35 71.1816 120.691 70.3869 120.691C69.5921 120.691 68.7974 119.35 68.7974 118.008C68.7974 116.667 69.5921 115.326 70.3869 115.326C71.1816 114.879 71.9764 116.22 71.9764 118.008Z" fill="#E5E5E5"/>
<path d="M105.885 118.008C105.885 119.35 105.091 120.691 104.296 120.691C103.501 120.691 102.707 119.35 102.707 118.008C102.707 116.667 103.501 115.326 104.296 115.326C105.091 114.879 105.885 116.22 105.885 118.008Z" fill="#E5E5E5"/>
<path d="M139.529 118.008C139.529 119.35 138.734 120.691 137.94 120.691C137.145 120.691 136.35 119.35 136.35 118.008C136.35 116.667 137.145 115.326 137.94 115.326C138.734 114.879 139.529 116.22 139.529 118.008Z" fill="#E5E5E5"/>
<path d="M173.439 118.009C173.439 119.35 172.644 120.692 171.85 120.692C171.055 120.692 170.26 119.35 170.26 118.009C170.26 116.668 171.055 115.327 171.85 115.327C172.644 115.327 173.439 116.221 173.439 118.009Z" fill="#E5E5E5"/>
<path d="M207.348 118.009C207.348 119.35 206.553 120.692 205.758 120.692C204.963 120.692 204.168 119.35 204.168 118.009C204.168 116.668 204.963 115.327 205.758 115.327C206.553 115.327 207.348 116.221 207.348 118.009Z" fill="#E5E5E5"/>
<path d="M240.991 118.008C240.991 119.35 240.197 120.691 239.402 120.691C238.607 120.691 237.812 119.35 237.812 118.008C237.812 116.667 238.607 115.326 239.402 115.326C240.462 114.879 240.991 116.22 240.991 118.008Z" fill="#E5E5E5"/>
<path d="M274.901 118.008C274.901 119.35 274.106 120.691 273.311 120.691C272.516 120.691 271.722 119.35 271.722 118.008C271.722 116.667 272.516 115.326 273.311 115.326C274.106 114.879 274.901 116.22 274.901 118.008Z" fill="#E5E5E5"/>
<path d="M308.81 118.008C308.81 119.35 308.015 120.691 307.22 120.691C306.426 120.691 305.631 119.35 305.631 118.008C305.631 116.667 306.426 115.326 307.22 115.326C308.015 114.879 308.81 116.22 308.81 118.008Z" fill="#E5E5E5"/>
<path d="M342.719 118.008C342.719 119.35 341.924 120.691 341.129 120.691C340.335 120.691 339.54 119.35 339.54 118.008C339.54 116.667 340.335 115.326 341.129 115.326C341.924 114.879 342.719 116.22 342.719 118.008Z" fill="#E5E5E5"/>
<path d="M376.362 118.008C376.362 119.35 375.568 120.691 374.773 120.691C373.978 120.691 373.184 119.35 373.184 118.008C373.184 116.667 373.978 115.326 374.773 115.326C375.833 114.879 376.362 116.22 376.362 118.008Z" fill="#E5E5E5"/>
<path d="M4.15848 174.788C4.15848 176.13 3.36373 177.471 2.56899 177.471C1.77424 177.471 0.979492 176.577 0.979492 174.788C0.979492 173.447 1.77424 172.106 2.56899 172.106C3.36373 172.106 4.15848 173.447 4.15848 174.788Z" fill="#E5E5E5"/>
<path d="M38.0677 174.788C38.0677 176.13 37.2729 177.471 36.4782 177.471C35.6834 177.471 34.8887 176.13 34.8887 174.788C34.8887 173.447 35.6834 172.106 36.4782 172.106C37.2729 172.106 38.0677 173.447 38.0677 174.788Z" fill="#E5E5E5"/>
<path d="M71.9764 174.788C71.9764 176.13 71.1816 177.471 70.3869 177.471C69.5921 177.471 68.7974 176.13 68.7974 174.788C68.7974 173.447 69.5921 172.106 70.3869 172.106C71.1816 172.106 71.9764 173.447 71.9764 174.788Z" fill="#E5E5E5"/>
<path d="M105.885 174.788C105.885 176.13 105.091 177.471 104.296 177.471C103.501 177.471 102.707 176.13 102.707 174.788C102.707 173.447 103.501 172.106 104.296 172.106C105.091 172.106 105.885 173.447 105.885 174.788Z" fill="#E5E5E5"/>
<path d="M139.529 174.788C139.529 176.13 138.734 177.471 137.94 177.471C137.145 177.471 136.35 176.13 136.35 174.788C136.35 173.447 137.145 172.106 137.94 172.106C138.734 172.106 139.529 173.447 139.529 174.788Z" fill="#E5E5E5"/>
<path d="M173.439 174.788C173.439 176.13 172.644 177.471 171.85 177.471C171.055 177.471 170.26 176.13 170.26 174.788C170.26 173.447 171.055 172.106 171.85 172.106C172.644 172.106 173.439 173.447 173.439 174.788Z" fill="#E5E5E5"/>
<path d="M207.348 174.788C207.348 176.13 206.553 177.471 205.758 177.471C204.963 177.471 204.168 176.13 204.168 174.788C204.168 173.447 204.963 172.106 205.758 172.106C206.553 172.106 207.348 173.447 207.348 174.788Z" fill="#E5E5E5"/>
<path d="M240.991 174.788C240.991 176.13 240.197 177.471 239.402 177.471C238.607 177.471 237.812 176.13 237.812 174.788C237.812 173.447 238.607 172.106 239.402 172.106C240.462 172.106 240.991 173.447 240.991 174.788Z" fill="#E5E5E5"/>
<path d="M274.901 174.788C274.901 176.13 274.106 177.471 273.311 177.471C272.516 177.471 271.722 176.13 271.722 174.788C271.722 173.447 272.516 172.106 273.311 172.106C274.106 172.106 274.901 173.447 274.901 174.788Z" fill="#E5E5E5"/>
<path d="M308.81 174.788C308.81 176.13 308.015 177.471 307.22 177.471C306.426 177.471 305.631 176.13 305.631 174.788C305.631 173.447 306.426 172.106 307.22 172.106C308.015 172.106 308.81 173.447 308.81 174.788Z" fill="#E5E5E5"/>
<path d="M342.719 174.788C342.719 176.13 341.924 177.471 341.129 177.471C340.335 177.471 339.54 176.13 339.54 174.788C339.54 173.447 340.335 172.106 341.129 172.106C341.924 172.106 342.719 173.447 342.719 174.788Z" fill="#E5E5E5"/>
<path d="M376.362 174.788C376.362 176.13 375.568 177.471 374.773 177.471C373.978 177.471 373.184 176.13 373.184 174.788C373.184 173.447 373.978 172.106 374.773 172.106C375.833 172.106 376.362 173.447 376.362 174.788Z" fill="#E5E5E5"/>
<path d="M4.15848 232.016C4.15848 233.357 3.36373 234.698 2.56899 234.698C1.77424 234.698 0.979492 233.357 0.979492 232.016C0.979492 230.674 1.77424 229.333 2.56899 229.333C3.36373 229.333 4.15848 230.674 4.15848 232.016Z" fill="#E5E5E5"/>
<path d="M38.0677 232.016C38.0677 233.357 37.2729 234.698 36.4782 234.698C35.6834 234.698 34.8887 233.357 34.8887 232.016C34.8887 230.674 35.6834 229.333 36.4782 229.333C37.2729 229.333 38.0677 230.674 38.0677 232.016Z" fill="#E5E5E5"/>
<path d="M71.9764 232.016C71.9764 233.357 71.1816 234.698 70.3869 234.698C69.5921 234.698 68.7974 233.357 68.7974 232.016C68.7974 230.674 69.5921 229.333 70.3869 229.333C71.1816 229.333 71.9764 230.674 71.9764 232.016Z" fill="#E5E5E5"/>
<path d="M105.885 232.016C105.885 233.357 105.091 234.698 104.296 234.698C103.501 234.698 102.707 233.357 102.707 232.016C102.707 230.674 103.501 229.333 104.296 229.333C105.091 229.333 105.885 230.674 105.885 232.016Z" fill="#E5E5E5"/>
<path d="M139.529 232.016C139.529 233.357 138.734 234.698 137.94 234.698C137.145 234.698 136.35 233.357 136.35 232.016C136.35 230.674 137.145 229.333 137.94 229.333C138.734 229.333 139.529 230.674 139.529 232.016Z" fill="#E5E5E5"/>
<path d="M173.439 232.016C173.439 233.357 172.644 234.698 171.85 234.698C171.055 234.698 170.26 233.357 170.26 232.016C170.26 230.674 171.055 229.333 171.85 229.333C172.644 229.333 173.439 230.674 173.439 232.016Z" fill="#E5E5E5"/>
<path d="M207.348 232.016C207.348 233.357 206.553 234.698 205.758 234.698C204.963 234.698 204.168 233.357 204.168 232.016C204.168 230.674 204.963 229.333 205.758 229.333C206.553 229.333 207.348 230.674 207.348 232.016Z" fill="#E5E5E5"/>
<path d="M240.991 232.016C240.991 233.357 240.197 234.698 239.402 234.698C238.607 234.698 237.812 233.357 237.812 232.016C237.812 230.674 238.607 229.333 239.402 229.333C240.462 229.333 240.991 230.674 240.991 232.016Z" fill="#E5E5E5"/>
<path d="M274.901 232.016C274.901 233.357 274.106 234.698 273.311 234.698C272.516 234.698 271.722 233.357 271.722 232.016C271.722 230.674 272.516 229.333 273.311 229.333C274.106 229.333 274.901 230.674 274.901 232.016Z" fill="#E5E5E5"/>
<path d="M308.81 232.016C308.81 233.357 308.015 234.698 307.22 234.698C306.426 234.698 305.631 233.357 305.631 232.016C305.631 230.674 306.426 229.333 307.22 229.333C308.015 229.333 308.81 230.674 308.81 232.016Z" fill="#E5E5E5"/>
<path d="M342.719 232.016C342.719 233.357 341.924 234.698 341.129 234.698C340.335 234.698 339.54 233.357 339.54 232.016C339.54 230.674 340.335 229.333 341.129 229.333C341.924 229.333 342.719 230.674 342.719 232.016Z" fill="#E5E5E5"/>
<path d="M376.362 232.016C376.362 233.357 375.568 234.698 374.773 234.698C373.978 234.698 373.184 233.357 373.184 232.016C373.184 230.674 373.978 229.333 374.773 229.333C375.833 229.333 376.362 230.674 376.362 232.016Z" fill="#E5E5E5"/>
<path d="M4.15848 289.241C4.15848 290.582 3.36373 291.924 2.56899 291.924C1.77424 291.924 0.979492 290.582 0.979492 289.241C0.979492 287.9 1.77424 286.559 2.56899 286.559C3.36373 286.559 4.15848 287.453 4.15848 289.241Z" fill="#E5E5E5"/>
<path d="M38.0677 289.241C38.0677 290.582 37.2729 291.924 36.4782 291.924C35.6834 291.924 34.8887 290.582 34.8887 289.241C34.8887 287.9 35.6834 286.559 36.4782 286.559C37.2729 286.559 38.0677 287.453 38.0677 289.241Z" fill="#E5E5E5"/>
<path d="M71.9764 289.241C71.9764 290.582 71.1816 291.924 70.3869 291.924C69.5921 291.924 68.7974 290.582 68.7974 289.241C68.7974 287.9 69.5921 286.559 70.3869 286.559C71.1816 286.559 71.9764 287.453 71.9764 289.241Z" fill="#E5E5E5"/>
<path d="M105.885 289.241C105.885 290.582 105.091 291.924 104.296 291.924C103.501 291.924 102.707 290.582 102.707 289.241C102.707 287.9 103.501 286.559 104.296 286.559C105.091 286.559 105.885 287.453 105.885 289.241Z" fill="#E5E5E5"/>
<path d="M139.529 289.241C139.529 290.582 138.734 291.924 137.94 291.924C137.145 291.924 136.35 290.582 136.35 289.241C136.35 287.9 137.145 286.559 137.94 286.559C138.734 286.559 139.529 287.453 139.529 289.241Z" fill="#E5E5E5"/>
<path d="M173.439 289.241C173.439 290.582 172.644 291.924 171.85 291.924C171.055 291.924 170.26 290.582 170.26 289.241C170.26 287.9 171.055 286.559 171.85 286.559C172.644 286.559 173.439 287.453 173.439 289.241Z" fill="#E5E5E5"/>
<path d="M207.348 289.241C207.348 290.582 206.553 291.924 205.758 291.924C204.963 291.924 204.168 290.582 204.168 289.241C204.168 287.9 204.963 286.559 205.758 286.559C206.553 286.559 207.348 287.453 207.348 289.241Z" fill="#E5E5E5"/>
<path d="M240.991 289.241C240.991 290.582 240.197 291.924 239.402 291.924C238.607 291.924 237.812 290.582 237.812 289.241C237.812 287.9 238.607 286.559 239.402 286.559C240.462 286.559 240.991 287.453 240.991 289.241Z" fill="#E5E5E5"/>
<path d="M274.901 289.241C274.901 290.582 274.106 291.924 273.311 291.924C272.516 291.924 271.722 290.582 271.722 289.241C271.722 287.9 272.516 286.559 273.311 286.559C274.106 286.559 274.901 287.453 274.901 289.241Z" fill="#E5E5E5"/>
<path d="M308.81 289.241C308.81 290.582 308.015 291.924 307.22 291.924C306.426 291.924 305.631 290.582 305.631 289.241C305.631 287.9 306.426 286.559 307.22 286.559C308.015 286.559 308.81 287.453 308.81 289.241Z" fill="#E5E5E5"/>
<path d="M342.719 289.241C342.719 290.582 341.924 291.924 341.129 291.924C340.335 291.924 339.54 290.582 339.54 289.241C339.54 287.9 340.335 286.559 341.129 286.559C341.924 286.559 342.719 287.453 342.719 289.241Z" fill="#E5E5E5"/>
<path d="M376.362 289.241C376.362 290.582 375.568 291.924 374.773 291.924C373.978 291.924 373.184 290.582 373.184 289.241C373.184 287.9 373.978 286.559 374.773 286.559C375.833 286.559 376.362 287.453 376.362 289.241Z" fill="#E5E5E5"/>
<path d="M4.15848 346.469C4.15848 347.81 3.36373 349.151 2.56899 349.151C1.77424 349.151 0.979492 347.81 0.979492 346.469C0.979492 345.127 1.77424 343.786 2.56899 343.786C3.36373 343.786 4.15848 344.68 4.15848 346.469Z" fill="#E5E5E5"/>
<path d="M38.0677 346.469C38.0677 347.81 37.2729 349.151 36.4782 349.151C35.6834 349.151 34.8887 347.81 34.8887 346.469C34.8887 345.128 35.6834 343.786 36.4782 343.786C37.2729 343.339 38.0677 344.681 38.0677 346.469Z" fill="#E5E5E5"/>
<path d="M71.9764 346.469C71.9764 347.81 71.1816 349.151 70.3869 349.151C69.5921 349.151 68.7974 347.81 68.7974 346.469C68.7974 345.128 69.5921 343.786 70.3869 343.786C71.1816 343.339 71.9764 344.681 71.9764 346.469Z" fill="#E5E5E5"/>
<path d="M105.885 346.469C105.885 347.81 105.091 349.151 104.296 349.151C103.501 349.151 102.707 347.81 102.707 346.469C102.707 345.128 103.501 343.786 104.296 343.786C105.091 343.339 105.885 344.681 105.885 346.469Z" fill="#E5E5E5"/>
<path d="M139.529 346.469C139.529 347.81 138.734 349.151 137.94 349.151C137.145 349.151 136.35 347.81 136.35 346.469C136.35 345.128 137.145 343.786 137.94 343.786C138.734 343.339 139.529 344.681 139.529 346.469Z" fill="#E5E5E5"/>
<path d="M173.439 346.468C173.439 347.809 172.644 349.151 171.85 349.151C171.055 349.151 170.26 347.809 170.26 346.468C170.26 345.127 171.055 343.786 171.85 343.786C172.644 343.786 173.439 344.68 173.439 346.468Z" fill="#E5E5E5"/>
<path d="M207.348 346.468C207.348 347.809 206.553 349.151 205.758 349.151C204.963 349.151 204.168 347.809 204.168 346.468C204.168 345.127 204.963 343.786 205.758 343.786C206.553 343.786 207.348 344.68 207.348 346.468Z" fill="#E5E5E5"/>
<path d="M240.991 346.469C240.991 347.81 240.197 349.151 239.402 349.151C238.607 349.151 237.812 347.81 237.812 346.469C237.812 345.128 238.607 343.786 239.402 343.786C240.462 343.339 240.991 344.681 240.991 346.469Z" fill="#E5E5E5"/>
<path d="M274.901 346.469C274.901 347.81 274.106 349.151 273.311 349.151C272.516 349.151 271.722 347.81 271.722 346.469C271.722 345.128 272.516 343.786 273.311 343.786C274.106 343.339 274.901 344.681 274.901 346.469Z" fill="#E5E5E5"/>
<path d="M308.81 346.469C308.81 347.81 308.015 349.151 307.22 349.151C306.426 349.151 305.631 347.81 305.631 346.469C305.631 345.128 306.426 343.786 307.22 343.786C308.015 343.339 308.81 344.681 308.81 346.469Z" fill="#E5E5E5"/>
<path d="M342.719 346.469C342.719 347.81 341.924 349.151 341.129 349.151C340.335 349.151 339.54 347.81 339.54 346.469C339.54 345.128 340.335 343.786 341.129 343.786C341.924 343.339 342.719 344.681 342.719 346.469Z" fill="#E5E5E5"/>
<path d="M376.362 346.469C376.362 347.81 375.568 349.151 374.773 349.151C373.978 349.151 373.184 347.81 373.184 346.469C373.184 345.128 373.978 343.786 374.773 343.786C375.833 343.339 376.362 344.681 376.362 346.469Z" fill="#E5E5E5"/>
<path d="M4.15848 403.248C4.15848 404.589 3.36373 405.93 2.56899 405.93C1.77424 405.93 0.979492 405.036 0.979492 403.248C0.979492 401.907 1.77424 400.565 2.56899 400.565C3.36373 400.565 4.15848 401.907 4.15848 403.248Z" fill="#E5E5E5"/>
<path d="M38.0677 403.248C38.0677 404.59 37.2729 405.931 36.4782 405.931C35.6834 405.931 34.8887 404.59 34.8887 403.248C34.8887 401.907 35.6834 400.566 36.4782 400.566C37.2729 400.566 38.0677 401.907 38.0677 403.248Z" fill="#E5E5E5"/>
<path d="M71.9764 403.248C71.9764 404.59 71.1816 405.931 70.3869 405.931C69.5921 405.931 68.7974 404.59 68.7974 403.248C68.7974 401.907 69.5921 400.566 70.3869 400.566C71.1816 400.566 71.9764 401.907 71.9764 403.248Z" fill="#E5E5E5"/>
<path d="M105.885 403.248C105.885 404.59 105.091 405.931 104.296 405.931C103.501 405.931 102.707 404.59 102.707 403.248C102.707 401.907 103.501 400.566 104.296 400.566C105.091 400.566 105.885 401.907 105.885 403.248Z" fill="#E5E5E5"/>
<path d="M139.529 403.248C139.529 404.59 138.734 405.931 137.94 405.931C137.145 405.931 136.35 404.59 136.35 403.248C136.35 401.907 137.145 400.566 137.94 400.566C138.734 400.566 139.529 401.907 139.529 403.248Z" fill="#E5E5E5"/>
<path d="M173.439 403.248C173.439 404.59 172.644 405.931 171.85 405.931C171.055 405.931 170.26 404.59 170.26 403.248C170.26 401.907 171.055 400.566 171.85 400.566C172.644 400.566 173.439 401.907 173.439 403.248Z" fill="#E5E5E5"/>
<path d="M207.348 403.248C207.348 404.59 206.553 405.931 205.758 405.931C204.963 405.931 204.168 404.59 204.168 403.248C204.168 401.907 204.963 400.566 205.758 400.566C206.553 400.566 207.348 401.907 207.348 403.248Z" fill="#E5E5E5"/>
<path d="M240.991 403.248C240.991 404.59 240.197 405.931 239.402 405.931C238.607 405.931 237.812 404.59 237.812 403.248C237.812 401.907 238.607 400.566 239.402 400.566C240.462 400.566 240.991 401.907 240.991 403.248Z" fill="#E5E5E5"/>
<path d="M274.901 403.248C274.901 404.59 274.106 405.931 273.311 405.931C272.516 405.931 271.722 404.59 271.722 403.248C271.722 401.907 272.516 400.566 273.311 400.566C274.106 400.566 274.901 401.907 274.901 403.248Z" fill="#E5E5E5"/>
<path d="M308.81 403.248C308.81 404.59 308.015 405.931 307.22 405.931C306.426 405.931 305.631 404.59 305.631 403.248C305.631 401.907 306.426 400.566 307.22 400.566C308.015 400.566 308.81 401.907 308.81 403.248Z" fill="#E5E5E5"/>
<path d="M342.719 403.248C342.719 404.59 341.924 405.931 341.129 405.931C340.335 405.931 339.54 404.59 339.54 403.248C339.54 401.907 340.335 400.566 341.129 400.566C341.924 400.566 342.719 401.907 342.719 403.248Z" fill="#E5E5E5"/>
<path d="M376.362 403.248C376.362 404.59 375.568 405.931 374.773 405.931C373.978 405.931 373.184 404.59 373.184 403.248C373.184 401.907 373.978 400.566 374.773 400.566C375.833 400.566 376.362 401.907 376.362 403.248Z" fill="#E5E5E5"/>
<path d="M4.15848 460.475C4.15848 461.816 3.36373 463.157 2.56899 463.157C1.77424 463.157 0.979492 461.816 0.979492 460.475C0.979492 459.134 1.77424 457.792 2.56899 457.792C3.36373 457.792 4.15848 459.134 4.15848 460.475Z" fill="#E5E5E5"/>
<path d="M38.0677 460.475C38.0677 461.816 37.2729 463.157 36.4782 463.157C35.6834 463.157 34.8887 461.816 34.8887 460.475C34.8887 459.134 35.6834 457.792 36.4782 457.792C37.2729 457.792 38.0677 459.134 38.0677 460.475Z" fill="#E5E5E5"/>
<path d="M71.9764 460.475C71.9764 461.816 71.1816 463.157 70.3869 463.157C69.5921 463.157 68.7974 461.816 68.7974 460.475C68.7974 459.134 69.5921 457.792 70.3869 457.792C71.1816 457.792 71.9764 459.134 71.9764 460.475Z" fill="#E5E5E5"/>
<path d="M105.885 460.475C105.885 461.816 105.091 463.157 104.296 463.157C103.501 463.157 102.707 461.816 102.707 460.475C102.707 459.134 103.501 457.792 104.296 457.792C105.091 457.792 105.885 459.134 105.885 460.475Z" fill="#E5E5E5"/>
<path d="M139.529 460.475C139.529 461.816 138.734 463.157 137.94 463.157C137.145 463.157 136.35 461.816 136.35 460.475C136.35 459.134 137.145 457.792 137.94 457.792C138.734 457.792 139.529 459.134 139.529 460.475Z" fill="#E5E5E5"/>
<path d="M173.439 460.475C173.439 461.816 172.644 463.157 171.85 463.157C171.055 463.157 170.26 461.816 170.26 460.475C170.26 459.134 171.055 457.792 171.85 457.792C172.644 457.792 173.439 459.134 173.439 460.475Z" fill="#E5E5E5"/>
<path d="M207.348 460.475C207.348 461.816 206.553 463.157 205.758 463.157C204.963 463.157 204.168 461.816 204.168 460.475C204.168 459.134 204.963 457.792 205.758 457.792C206.553 457.792 207.348 459.134 207.348 460.475Z" fill="#E5E5E5"/>
<path d="M240.991 460.475C240.991 461.816 240.197 463.157 239.402 463.157C238.607 463.157 237.812 461.816 237.812 460.475C237.812 459.134 238.607 457.792 239.402 457.792C240.462 457.792 240.991 459.134 240.991 460.475Z" fill="#E5E5E5"/>
<path d="M274.901 460.475C274.901 461.816 274.106 463.157 273.311 463.157C272.516 463.157 271.722 461.816 271.722 460.475C271.722 459.134 272.516 457.792 273.311 457.792C274.106 457.792 274.901 459.134 274.901 460.475Z" fill="#E5E5E5"/>
<path d="M308.81 460.475C308.81 461.816 308.015 463.157 307.22 463.157C306.426 463.157 305.631 461.816 305.631 460.475C305.631 459.134 306.426 457.792 307.22 457.792C308.015 457.792 308.81 459.134 308.81 460.475Z" fill="#E5E5E5"/>
<path d="M342.719 460.475C342.719 461.816 341.924 463.157 341.129 463.157C340.335 463.157 339.54 461.816 339.54 460.475C339.54 459.134 340.335 457.792 341.129 457.792C341.924 457.792 342.719 459.134 342.719 460.475Z" fill="#E5E5E5"/>
<path d="M376.362 460.475C376.362 461.816 375.568 463.157 374.773 463.157C373.978 463.157 373.184 461.816 373.184 460.475C373.184 459.134 373.978 457.792 374.773 457.792C375.833 457.792 376.362 459.134 376.362 460.475Z" fill="#E5E5E5"/>
<path d="M4.15848 517.702C4.15848 519.043 3.36373 520.385 2.56899 520.385C1.77424 520.385 0.979492 519.043 0.979492 517.702C0.979492 516.361 1.77424 515.02 2.56899 515.02C3.36373 515.02 4.15848 515.914 4.15848 517.702Z" fill="#E5E5E5"/>
<path d="M38.0677 517.702C38.0677 519.043 37.2729 520.385 36.4782 520.385C35.6834 520.385 34.8887 519.043 34.8887 517.702C34.8887 516.361 35.6834 515.02 36.4782 515.02C37.2729 515.02 38.0677 515.914 38.0677 517.702Z" fill="#E5E5E5"/>
<path d="M71.9764 517.702C71.9764 519.043 71.1816 520.385 70.3869 520.385C69.5921 520.385 68.7974 519.043 68.7974 517.702C68.7974 516.361 69.5921 515.02 70.3869 515.02C71.1816 515.02 71.9764 515.914 71.9764 517.702Z" fill="#E5E5E5"/>
<path d="M105.885 517.702C105.885 519.043 105.091 520.385 104.296 520.385C103.501 520.385 102.707 519.043 102.707 517.702C102.707 516.361 103.501 515.02 104.296 515.02C105.091 515.02 105.885 515.914 105.885 517.702Z" fill="#E5E5E5"/>
<path d="M139.529 517.702C139.529 519.043 138.734 520.385 137.94 520.385C137.145 520.385 136.35 519.043 136.35 517.702C136.35 516.361 137.145 515.02 137.94 515.02C138.734 515.02 139.529 515.914 139.529 517.702Z" fill="#E5E5E5"/>
<path d="M173.439 517.702C173.439 519.043 172.644 520.385 171.85 520.385C171.055 520.385 170.26 519.043 170.26 517.702C170.26 516.361 171.055 515.02 171.85 515.02C172.644 515.02 173.439 515.914 173.439 517.702Z" fill="#E5E5E5"/>
<path d="M207.348 517.702C207.348 519.043 206.553 520.385 205.758 520.385C204.963 520.385 204.168 519.043 204.168 517.702C204.168 516.361 204.963 515.02 205.758 515.02C206.553 515.02 207.348 515.914 207.348 517.702Z" fill="#E5E5E5"/>
<path d="M240.991 517.702C240.991 519.043 240.197 520.385 239.402 520.385C238.607 520.385 237.812 519.043 237.812 517.702C237.812 516.361 238.607 515.02 239.402 515.02C240.462 515.02 240.991 515.914 240.991 517.702Z" fill="#E5E5E5"/>
<path d="M274.901 517.702C274.901 519.043 274.106 520.385 273.311 520.385C272.516 520.385 271.722 519.043 271.722 517.702C271.722 516.361 272.516 515.02 273.311 515.02C274.106 515.02 274.901 515.914 274.901 517.702Z" fill="#E5E5E5"/>
<path d="M308.81 517.702C308.81 519.043 308.015 520.385 307.22 520.385C306.426 520.385 305.631 519.043 305.631 517.702C305.631 516.361 306.426 515.02 307.22 515.02C308.015 515.02 308.81 515.914 308.81 517.702Z" fill="#E5E5E5"/>
<path d="M342.719 517.702C342.719 519.043 341.924 520.385 341.129 520.385C340.335 520.385 339.54 519.043 339.54 517.702C339.54 516.361 340.335 515.02 341.129 515.02C341.924 515.02 342.719 515.914 342.719 517.702Z" fill="#E5E5E5"/>
<path d="M376.362 517.702C376.362 519.043 375.568 520.385 374.773 520.385C373.978 520.385 373.184 519.043 373.184 517.702C373.184 516.361 373.978 515.02 374.773 515.02C375.833 515.02 376.362 515.914 376.362 517.702Z" fill="#E5E5E5"/>
<path d="M4.15848 574.481C4.15848 575.823 3.36373 577.164 2.56899 577.164C1.77424 577.164 0.979492 576.27 0.979492 574.481C0.979492 573.14 1.77424 571.799 2.56899 571.799C3.36373 571.799 4.15848 573.14 4.15848 574.481Z" fill="#E5E5E5"/>
<path d="M38.0677 574.482C38.0677 575.823 37.2729 577.164 36.4782 577.164C35.6834 577.164 34.8887 575.823 34.8887 574.482C34.8887 573.141 35.6834 571.799 36.4782 571.799C37.2729 571.799 38.0677 573.141 38.0677 574.482Z" fill="#E5E5E5"/>
<path d="M71.9764 574.482C71.9764 575.823 71.1816 577.164 70.3869 577.164C69.5921 577.164 68.7974 575.823 68.7974 574.482C68.7974 573.141 69.5921 571.799 70.3869 571.799C71.1816 571.799 71.9764 573.141 71.9764 574.482Z" fill="#E5E5E5"/>
<path d="M105.885 574.482C105.885 575.823 105.091 577.164 104.296 577.164C103.501 577.164 102.707 575.823 102.707 574.482C102.707 573.141 103.501 571.799 104.296 571.799C105.091 571.799 105.885 573.141 105.885 574.482Z" fill="#E5E5E5"/>
<path d="M139.529 574.482C139.529 575.823 138.734 577.164 137.94 577.164C137.145 577.164 136.35 575.823 136.35 574.482C136.35 573.141 137.145 571.799 137.94 571.799C138.734 571.799 139.529 573.141 139.529 574.482Z" fill="#E5E5E5"/>
<path d="M173.439 574.482C173.439 575.823 172.644 577.164 171.85 577.164C171.055 577.164 170.26 575.823 170.26 574.482C170.26 573.141 171.055 571.799 171.85 571.799C172.644 571.799 173.439 573.141 173.439 574.482Z" fill="#E5E5E5"/>
<path d="M207.348 574.482C207.348 575.823 206.553 577.164 205.758 577.164C204.963 577.164 204.168 575.823 204.168 574.482C204.168 573.141 204.963 571.799 205.758 571.799C206.553 571.799 207.348 573.141 207.348 574.482Z" fill="#E5E5E5"/>
<path d="M240.991 574.482C240.991 575.823 240.197 577.164 239.402 577.164C238.607 577.164 237.812 575.823 237.812 574.482C237.812 573.141 238.607 571.799 239.402 571.799C240.462 571.799 240.991 573.141 240.991 574.482Z" fill="#E5E5E5"/>
<path d="M274.901 574.482C274.901 575.823 274.106 577.164 273.311 577.164C272.516 577.164 271.722 575.823 271.722 574.482C271.722 573.141 272.516 571.799 273.311 571.799C274.106 571.799 274.901 573.141 274.901 574.482Z" fill="#E5E5E5"/>
<path d="M308.81 574.482C308.81 575.823 308.015 577.164 307.22 577.164C306.426 577.164 305.631 575.823 305.631 574.482C305.631 573.141 306.426 571.799 307.22 571.799C308.015 571.799 308.81 573.141 308.81 574.482Z" fill="#E5E5E5"/>
<path d="M342.719 574.482C342.719 575.823 341.924 577.164 341.129 577.164C340.335 577.164 339.54 575.823 339.54 574.482C339.54 573.141 340.335 571.799 341.129 571.799C341.924 571.799 342.719 573.141 342.719 574.482Z" fill="#E5E5E5"/>
<path d="M376.362 574.482C376.362 575.823 375.568 577.164 374.773 577.164C373.978 577.164 373.184 575.823 373.184 574.482C373.184 573.141 373.978 571.799 374.773 571.799C375.833 571.799 376.362 573.141 376.362 574.482Z" fill="#E5E5E5"/>
<path d="M4.15848 631.708C4.15848 633.05 3.36373 634.391 2.56899 634.391C1.77424 634.391 0.979492 633.497 0.979492 631.708C0.979492 630.367 1.77424 629.026 2.56899 629.026C3.36373 629.026 4.15848 630.367 4.15848 631.708Z" fill="#E5E5E5"/>
<path d="M38.0677 631.708C38.0677 633.05 37.2729 634.391 36.4782 634.391C35.6834 634.391 34.8887 633.05 34.8887 631.708C34.8887 630.367 35.6834 629.026 36.4782 629.026C37.2729 629.026 38.0677 630.367 38.0677 631.708Z" fill="#E5E5E5"/>
<path d="M71.9764 631.708C71.9764 633.05 71.1816 634.391 70.3869 634.391C69.5921 634.391 68.7974 633.05 68.7974 631.708C68.7974 630.367 69.5921 629.026 70.3869 629.026C71.1816 629.026 71.9764 630.367 71.9764 631.708Z" fill="#E5E5E5"/>
<path d="M105.885 631.708C105.885 633.05 105.091 634.391 104.296 634.391C103.501 634.391 102.707 633.05 102.707 631.708C102.707 630.367 103.501 629.026 104.296 629.026C105.091 629.026 105.885 630.367 105.885 631.708Z" fill="#E5E5E5"/>
<path d="M139.529 631.708C139.529 633.05 138.734 634.391 137.94 634.391C137.145 634.391 136.35 633.05 136.35 631.708C136.35 630.367 137.145 629.026 137.94 629.026C138.734 629.026 139.529 630.367 139.529 631.708Z" fill="#E5E5E5"/>
<path d="M173.439 631.708C173.439 633.05 172.644 634.391 171.85 634.391C171.055 634.391 170.26 633.05 170.26 631.708C170.26 630.367 171.055 629.026 171.85 629.026C172.644 629.026 173.439 630.367 173.439 631.708Z" fill="#E5E5E5"/>
<path d="M207.348 631.708C207.348 633.05 206.553 634.391 205.758 634.391C204.963 634.391 204.168 633.05 204.168 631.708C204.168 630.367 204.963 629.026 205.758 629.026C206.553 629.026 207.348 630.367 207.348 631.708Z" fill="#E5E5E5"/>
<path d="M240.991 631.708C240.991 633.05 240.197 634.391 239.402 634.391C238.607 634.391 237.812 633.05 237.812 631.708C237.812 630.367 238.607 629.026 239.402 629.026C240.462 629.026 240.991 630.367 240.991 631.708Z" fill="#E5E5E5"/>
<path d="M274.901 631.708C274.901 633.05 274.106 634.391 273.311 634.391C272.516 634.391 271.722 633.05 271.722 631.708C271.722 630.367 272.516 629.026 273.311 629.026C274.106 629.026 274.901 630.367 274.901 631.708Z" fill="#E5E5E5"/>
<path d="M308.81 631.708C308.81 633.05 308.015 634.391 307.22 634.391C306.426 634.391 305.631 633.05 305.631 631.708C305.631 630.367 306.426 629.026 307.22 629.026C308.015 629.026 308.81 630.367 308.81 631.708Z" fill="#E5E5E5"/>
<path d="M342.719 631.708C342.719 633.05 341.924 634.391 341.129 634.391C340.335 634.391 339.54 633.05 339.54 631.708C339.54 630.367 340.335 629.026 341.129 629.026C341.924 629.026 342.719 630.367 342.719 631.708Z" fill="#E5E5E5"/>
<path d="M376.362 631.708C376.362 633.05 375.568 634.391 374.773 634.391C373.978 634.391 373.184 633.05 373.184 631.708C373.184 630.367 373.978 629.026 374.773 629.026C375.833 629.026 376.362 630.367 376.362 631.708Z" fill="#E5E5E5"/>
</svg>
