<svg width="44" height="30" viewBox="0 0 44 30" fill="none" xmlns="http://www.w3.org/2000/svg">
<circle cx="29" cy="15" r="13.5" stroke="white" stroke-width="3"/>
<path d="M33.6104 14.0866C33.61 14.0862 33.6097 14.0858 33.6092 14.0854L26.6695 7.37572C26.1496 6.87308 25.3087 6.87495 24.7912 7.38011C24.2738 7.88521 24.2758 8.70217 24.7957 9.20488L29.455 13.7097H1.32812C0.594601 13.7097 0 14.2873 0 15C0 15.7126 0.594601 16.2903 1.32812 16.2903H29.4549L24.7957 20.7951C24.2759 21.2978 24.2739 22.1148 24.7913 22.6199C25.3088 23.1251 26.1498 23.1268 26.6696 22.6242L33.6093 15.9146C33.6097 15.9142 33.61 15.9137 33.6105 15.9133C34.1307 15.409 34.129 14.5893 33.6104 14.0866Z" fill="white"/>
</svg>
