<svg width="31" height="34" viewBox="0 0 31 34" fill="none" xmlns="http://www.w3.org/2000/svg">
<path d="M10.2392 33.9998C4.79574 33.9707 0.292969 23.6411 0.292969 18.3804C0.292969 9.78721 7.22764 7.90592 9.90021 7.90592C11.1046 7.90592 12.3907 8.3456 13.525 8.73467C14.3183 9.00607 15.1386 9.28624 15.5949 9.28624C15.868 9.28624 16.5116 9.04791 17.0798 8.8388C18.2915 8.39036 19.7994 7.83301 21.5553 7.83301C21.5585 7.83301 21.5627 7.83301 21.5657 7.83301C22.8769 7.83301 26.8523 8.10049 29.2424 11.437L29.8022 12.2191L28.9965 12.7843C27.8454 13.5916 25.7452 15.0644 25.7452 17.9817C25.7452 21.4369 28.1237 22.7656 29.2664 23.4047C29.7708 23.6868 30.293 23.9777 30.293 24.6139C30.293 25.0292 26.7267 33.9483 21.548 33.9483C20.2808 33.9483 19.385 33.5942 18.5949 33.282C17.7955 32.9658 17.1058 32.6935 15.9663 32.6935C15.3887 32.6935 14.6582 32.9474 13.8849 33.2169C12.8282 33.5835 11.632 33.9998 10.2748 33.9998H10.2392Z" fill="white"/>
<path d="M22.1048 0C22.2397 4.52066 18.7618 7.65689 15.288 7.4602C14.7155 3.85255 18.7613 0 22.1048 0Z" fill="white"/>
</svg>
