<svg width="329" height="272" viewBox="0 0 329 272" fill="none" xmlns="http://www.w3.org/2000/svg">
<circle cx="4.51372" cy="4.7332" r="4.51372" fill="#E6E6E6"/>
<circle cx="4.51372" cy="33.8216" r="4.51372" fill="#E6E6E6"/>
<circle cx="4.51372" cy="62.91" r="4.51372" fill="#E6E6E6"/>
<circle cx="4.51372" cy="91.9985" r="4.51372" fill="#E6E6E6"/>
<circle cx="4.51372" cy="121.087" r="4.51372" fill="#E6E6E6"/>
<circle cx="4.51372" cy="150.175" r="4.51372" fill="#E6E6E6"/>
<circle cx="4.51372" cy="179.264" r="4.51372" fill="#E6E6E6"/>
<circle cx="4.51372" cy="208.352" r="4.51372" fill="#E6E6E6"/>
<circle cx="4.51372" cy="237.441" r="4.51372" fill="#E6E6E6"/>
<circle cx="4.51372" cy="266.529" r="4.51372" fill="#E6E6E6"/>
<circle cx="120.867" cy="4.7332" r="4.51372" fill="#E6E6E6"/>
<circle cx="120.867" cy="33.8216" r="4.51372" fill="#E6E6E6"/>
<circle cx="120.867" cy="62.91" r="4.51372" fill="#E6E6E6"/>
<circle cx="120.867" cy="91.9985" r="4.51372" fill="#E6E6E6"/>
<circle cx="120.867" cy="121.087" r="4.51372" fill="#E6E6E6"/>
<circle cx="120.867" cy="150.175" r="4.51372" fill="#E6E6E6"/>
<circle cx="120.867" cy="179.264" r="4.51372" fill="#E6E6E6"/>
<circle cx="120.867" cy="208.352" r="4.51372" fill="#E6E6E6"/>
<circle cx="120.867" cy="237.441" r="4.51372" fill="#E6E6E6"/>
<circle cx="120.867" cy="266.529" r="4.51372" fill="#E6E6E6"/>
<circle cx="237.221" cy="4.7332" r="4.51372" fill="#E6E6E6"/>
<circle cx="237.221" cy="33.8216" r="4.51372" fill="#E6E6E6"/>
<circle cx="237.221" cy="62.91" r="4.51372" fill="#E6E6E6"/>
<circle cx="237.221" cy="91.9985" r="4.51372" fill="#E6E6E6"/>
<circle cx="237.221" cy="121.087" r="4.51372" fill="#E6E6E6"/>
<circle cx="237.221" cy="150.175" r="4.51372" fill="#E6E6E6"/>
<circle cx="237.221" cy="179.264" r="4.51372" fill="#E6E6E6"/>
<circle cx="237.221" cy="208.352" r="4.51372" fill="#E6E6E6"/>
<circle cx="237.221" cy="237.441" r="4.51372" fill="#E6E6E6"/>
<circle cx="237.221" cy="266.529" r="4.51372" fill="#E6E6E6"/>
<circle cx="62.69" cy="4.7332" r="4.51372" fill="#E6E6E6"/>
<circle cx="62.69" cy="33.8216" r="4.51372" fill="#E6E6E6"/>
<circle cx="62.69" cy="62.91" r="4.51372" fill="#E6E6E6"/>
<circle cx="62.69" cy="91.9985" r="4.51372" fill="#E6E6E6"/>
<circle cx="62.69" cy="121.087" r="4.51372" fill="#E6E6E6"/>
<circle cx="62.69" cy="150.175" r="4.51372" fill="#E6E6E6"/>
<circle cx="62.69" cy="179.264" r="4.51372" fill="#E6E6E6"/>
<circle cx="62.69" cy="208.352" r="4.51372" fill="#E6E6E6"/>
<circle cx="62.69" cy="237.441" r="4.51372" fill="#E6E6E6"/>
<circle cx="62.69" cy="266.529" r="4.51372" fill="#E6E6E6"/>
<circle cx="179.044" cy="4.7332" r="4.51372" fill="#E6E6E6"/>
<circle cx="179.044" cy="33.8216" r="4.51372" fill="#E6E6E6"/>
<circle cx="179.044" cy="62.91" r="4.51372" fill="#E6E6E6"/>
<circle cx="179.044" cy="91.9985" r="4.51372" fill="#E6E6E6"/>
<circle cx="179.044" cy="121.087" r="4.51372" fill="#E6E6E6"/>
<circle cx="179.044" cy="150.175" r="4.51372" fill="#E6E6E6"/>
<circle cx="179.044" cy="179.264" r="4.51372" fill="#E6E6E6"/>
<circle cx="179.044" cy="208.352" r="4.51372" fill="#E6E6E6"/>
<circle cx="179.044" cy="237.441" r="4.51372" fill="#E6E6E6"/>
<circle cx="179.044" cy="266.529" r="4.51372" fill="#E6E6E6"/>
<circle cx="295.398" cy="4.7332" r="4.51372" fill="#E6E6E6"/>
<circle cx="295.398" cy="33.8216" r="4.51372" fill="#E6E6E6"/>
<circle cx="295.398" cy="62.91" r="4.51372" fill="#E6E6E6"/>
<circle cx="295.398" cy="91.9985" r="4.51372" fill="#E6E6E6"/>
<circle cx="295.398" cy="121.087" r="4.51372" fill="#E6E6E6"/>
<circle cx="295.398" cy="150.175" r="4.51372" fill="#E6E6E6"/>
<circle cx="295.398" cy="179.264" r="4.51372" fill="#E6E6E6"/>
<circle cx="295.398" cy="208.352" r="4.51372" fill="#E6E6E6"/>
<circle cx="295.398" cy="237.441" r="4.51372" fill="#E6E6E6"/>
<circle cx="295.398" cy="266.529" r="4.51372" fill="#E6E6E6"/>
<circle cx="33.6021" cy="4.7332" r="4.51372" fill="#E6E6E6"/>
<circle cx="33.6021" cy="33.8216" r="4.51372" fill="#E6E6E6"/>
<circle cx="33.6021" cy="62.91" r="4.51372" fill="#E6E6E6"/>
<circle cx="33.6021" cy="91.9985" r="4.51372" fill="#E6E6E6"/>
<circle cx="33.6021" cy="121.087" r="4.51372" fill="#E6E6E6"/>
<circle cx="33.6021" cy="150.175" r="4.51372" fill="#E6E6E6"/>
<circle cx="33.6021" cy="179.264" r="4.51372" fill="#E6E6E6"/>
<circle cx="33.6021" cy="208.352" r="4.51372" fill="#E6E6E6"/>
<circle cx="33.6021" cy="237.441" r="4.51372" fill="#E6E6E6"/>
<circle cx="33.6021" cy="266.529" r="4.51372" fill="#E6E6E6"/>
<circle cx="149.956" cy="4.7332" r="4.51372" fill="#E6E6E6"/>
<circle cx="149.956" cy="33.8216" r="4.51372" fill="#E6E6E6"/>
<circle cx="149.956" cy="62.91" r="4.51372" fill="#E6E6E6"/>
<circle cx="149.956" cy="91.9985" r="4.51372" fill="#E6E6E6"/>
<circle cx="149.956" cy="121.087" r="4.51372" fill="#E6E6E6"/>
<circle cx="149.956" cy="150.175" r="4.51372" fill="#E6E6E6"/>
<circle cx="149.956" cy="179.264" r="4.51372" fill="#E6E6E6"/>
<circle cx="149.956" cy="208.352" r="4.51372" fill="#E6E6E6"/>
<circle cx="149.956" cy="237.441" r="4.51372" fill="#E6E6E6"/>
<circle cx="149.956" cy="266.529" r="4.51372" fill="#E6E6E6"/>
<circle cx="266.31" cy="4.7332" r="4.51372" fill="#E6E6E6"/>
<circle cx="266.31" cy="33.8216" r="4.51372" fill="#E6E6E6"/>
<circle cx="266.31" cy="62.91" r="4.51372" fill="#E6E6E6"/>
<circle cx="266.31" cy="91.9985" r="4.51372" fill="#E6E6E6"/>
<circle cx="266.31" cy="121.087" r="4.51372" fill="#E6E6E6"/>
<circle cx="266.31" cy="150.175" r="4.51372" fill="#E6E6E6"/>
<circle cx="266.31" cy="179.264" r="4.51372" fill="#E6E6E6"/>
<circle cx="266.31" cy="208.352" r="4.51372" fill="#E6E6E6"/>
<circle cx="266.31" cy="237.441" r="4.51372" fill="#E6E6E6"/>
<circle cx="266.31" cy="266.529" r="4.51372" fill="#E6E6E6"/>
<circle cx="91.7789" cy="4.7332" r="4.51372" fill="#E6E6E6"/>
<circle cx="91.7789" cy="33.8216" r="4.51372" fill="#E6E6E6"/>
<circle cx="91.7789" cy="62.91" r="4.51372" fill="#E6E6E6"/>
<circle cx="91.7789" cy="91.9985" r="4.51372" fill="#E6E6E6"/>
<circle cx="91.7789" cy="121.087" r="4.51372" fill="#E6E6E6"/>
<circle cx="91.7789" cy="150.175" r="4.51372" fill="#E6E6E6"/>
<circle cx="91.7789" cy="179.264" r="4.51372" fill="#E6E6E6"/>
<circle cx="91.7789" cy="208.352" r="4.51372" fill="#E6E6E6"/>
<circle cx="91.7789" cy="237.441" r="4.51372" fill="#E6E6E6"/>
<circle cx="91.7789" cy="266.529" r="4.51372" fill="#E6E6E6"/>
<circle cx="208.132" cy="4.7332" r="4.51372" fill="#E6E6E6"/>
<circle cx="208.132" cy="33.8216" r="4.51372" fill="#E6E6E6"/>
<circle cx="208.132" cy="62.91" r="4.51372" fill="#E6E6E6"/>
<circle cx="208.132" cy="91.9985" r="4.51372" fill="#E6E6E6"/>
<circle cx="208.132" cy="121.087" r="4.51372" fill="#E6E6E6"/>
<circle cx="208.132" cy="150.175" r="4.51372" fill="#E6E6E6"/>
<circle cx="208.132" cy="179.264" r="4.51372" fill="#E6E6E6"/>
<circle cx="208.132" cy="208.352" r="4.51372" fill="#E6E6E6"/>
<circle cx="208.132" cy="237.441" r="4.51372" fill="#E6E6E6"/>
<circle cx="208.132" cy="266.529" r="4.51372" fill="#E6E6E6"/>
<circle cx="324.486" cy="4.7332" r="4.51372" fill="#E6E6E6"/>
<circle cx="324.486" cy="33.8216" r="4.51372" fill="#E6E6E6"/>
<circle cx="324.486" cy="62.91" r="4.51372" fill="#E6E6E6"/>
<circle cx="324.486" cy="91.9985" r="4.51372" fill="#E6E6E6"/>
<circle cx="324.486" cy="121.087" r="4.51372" fill="#E6E6E6"/>
<circle cx="324.486" cy="150.175" r="4.51372" fill="#E6E6E6"/>
<circle cx="324.486" cy="179.264" r="4.51372" fill="#E6E6E6"/>
<circle cx="324.486" cy="208.352" r="4.51372" fill="#E6E6E6"/>
<circle cx="324.486" cy="237.441" r="4.51372" fill="#E6E6E6"/>
<circle cx="324.486" cy="266.529" r="4.51372" fill="#E6E6E6"/>
</svg>
