<svg width="550" height="526" viewBox="0 0 550 526" fill="none" xmlns="http://www.w3.org/2000/svg">
<path d="M4.65775 2.8778C4.65775 4.36078 3.88146 5.10227 2.32887 5.10227C0.776291 5.10227 0 4.36078 0 2.8778C0 1.76556 1.16444 0.65332 2.32887 0.65332C3.49331 0.65332 4.65775 1.76556 4.65775 2.8778Z" fill="#E5E5E5"/>
<path d="M54.3404 2.8778C54.3404 3.99003 53.1759 5.10227 52.0115 5.10227C50.8471 5.10227 49.6826 3.99003 49.6826 2.8778C49.6826 1.76556 50.4589 0.65332 52.0115 0.65332C53.1759 0.65332 54.3404 1.76556 54.3404 2.8778Z" fill="#E5E5E5"/>
<path d="M104.023 2.8778C104.023 3.99003 102.858 5.10227 101.694 5.10227C100.529 5.10227 99.3647 3.99003 99.3647 2.8778C99.3647 1.76556 100.529 0.65332 101.694 0.65332C102.858 0.65332 104.023 1.76556 104.023 2.8778Z" fill="#E5E5E5"/>
<path d="M153.705 2.8778C153.705 3.99003 152.541 5.10227 151.376 5.10227C150.212 5.10227 149.047 3.99003 149.047 2.8778C149.047 1.76556 150.212 0.65332 151.376 0.65332C152.541 0.65332 153.705 1.76556 153.705 2.8778Z" fill="#E5E5E5"/>
<path d="M202.999 2.8778C202.999 3.99003 201.834 5.10227 200.67 5.10227C199.505 5.10227 198.341 3.99003 198.341 2.8778C198.341 1.76556 199.505 0.65332 200.67 0.65332C201.834 0.65332 202.999 1.76556 202.999 2.8778Z" fill="#E5E5E5"/>
<path d="M252.683 2.8778C252.683 3.99003 251.518 5.10227 250.354 5.10227C249.189 5.10227 248.025 4.36078 248.025 2.8778C248.025 1.76556 249.189 0.65332 250.354 0.65332C251.518 0.65332 252.683 1.76556 252.683 2.8778Z" fill="#E5E5E5"/>
<path d="M302.364 2.8778C302.364 3.99003 301.2 5.10227 300.035 5.10227C298.871 5.10227 297.318 4.36078 297.318 2.8778C297.318 1.76556 298.483 0.65332 299.647 0.65332C300.812 0.65332 302.364 1.76556 302.364 2.8778Z" fill="#E5E5E5"/>
<path d="M351.658 2.8778C351.658 3.99003 350.493 5.10227 349.329 5.10227C348.164 5.10227 347 3.99003 347 2.8778C347 1.76556 348.164 0.65332 349.329 0.65332C350.881 0.65332 351.658 1.76556 351.658 2.8778Z" fill="#E5E5E5"/>
<path d="M401.34 2.8778C401.34 3.99003 400.176 5.10227 399.012 5.10227C397.847 5.10227 396.683 3.99003 396.683 2.8778C396.683 1.76556 397.847 0.65332 399.012 0.65332C400.176 0.65332 401.34 1.76556 401.34 2.8778Z" fill="#E5E5E5"/>
<path d="M451.023 2.8778C451.023 3.99003 449.859 5.10227 448.694 5.10227C447.53 5.10227 446.365 3.99003 446.365 2.8778C446.365 1.76556 447.53 0.65332 448.694 0.65332C449.859 0.65332 451.023 1.76556 451.023 2.8778Z" fill="#E5E5E5"/>
<path d="M500.706 2.8778C500.706 3.99003 499.542 5.10227 498.377 5.10227C497.213 5.10227 496.048 3.99003 496.048 2.8778C496.048 1.76556 497.213 0.65332 498.377 0.65332C499.542 0.65332 500.706 1.76556 500.706 2.8778Z" fill="#E5E5E5"/>
<path d="M550 2.8778C550 3.99003 548.836 5.10227 547.671 5.10227C546.507 5.10227 545.342 3.99003 545.342 2.8778C545.342 1.76556 546.507 0.65332 547.671 0.65332C549.224 0.65332 550 1.76556 550 2.8778Z" fill="#E5E5E5"/>
<path d="M4.65775 50.3334C4.65775 51.4456 3.88146 52.5578 2.32887 52.5578C0.776291 52.5578 0 51.4456 0 50.3334C0 49.2211 1.16444 48.1089 2.32887 48.1089C3.49331 48.1089 4.65775 48.8504 4.65775 50.3334Z" fill="#E5E5E5"/>
<path d="M54.3404 50.3334C54.3404 51.4456 53.1759 52.5578 52.0115 52.5578C50.8471 52.5578 49.6826 51.4456 49.6826 50.3334C49.6826 49.2211 50.8471 48.1089 52.0115 48.1089C53.1759 48.1089 54.3404 48.8504 54.3404 50.3334Z" fill="#E5E5E5"/>
<path d="M104.023 50.3334C104.023 51.4456 102.858 52.5578 101.694 52.5578C100.529 52.5578 99.3647 51.4456 99.3647 50.3334C99.3647 49.2211 100.529 48.1089 101.694 48.1089C102.858 48.1089 104.023 48.8504 104.023 50.3334Z" fill="#E5E5E5"/>
<path d="M153.705 50.3334C153.705 51.4456 152.541 52.5578 151.376 52.5578C150.212 52.5578 149.047 51.4456 149.047 50.3334C149.047 49.2211 150.212 48.1089 151.376 48.1089C152.541 48.1089 153.705 48.8504 153.705 50.3334Z" fill="#E5E5E5"/>
<path d="M202.999 50.3334C202.999 51.4456 201.834 52.5578 200.67 52.5578C199.505 52.5578 198.341 51.4456 198.341 50.3334C198.341 49.2211 199.505 48.1089 200.67 48.1089C201.834 48.1089 202.999 48.8504 202.999 50.3334Z" fill="#E5E5E5"/>
<path d="M252.683 50.3334C252.683 51.4456 251.518 52.5578 250.354 52.5578C249.189 52.5578 248.025 51.4456 248.025 50.3334C248.025 49.2211 249.189 48.1089 250.354 48.1089C251.518 48.1089 252.683 48.8504 252.683 50.3334Z" fill="#E5E5E5"/>
<path d="M302.364 50.3334C302.364 51.4456 301.2 52.5578 300.035 52.5578C298.871 52.5578 297.706 51.4456 297.706 50.3334C297.706 49.2211 298.871 48.1089 300.035 48.1089C301.2 48.1089 302.364 48.8504 302.364 50.3334Z" fill="#E5E5E5"/>
<path d="M351.658 50.3334C351.658 51.4456 350.493 52.5578 349.329 52.5578C348.164 52.5578 347 51.4456 347 50.3334C347 49.2211 348.164 48.1089 349.329 48.1089C350.881 48.1089 351.658 48.8504 351.658 50.3334Z" fill="#E5E5E5"/>
<path d="M401.34 50.3334C401.34 51.4456 400.176 52.5578 399.012 52.5578C397.847 52.5578 396.683 51.4456 396.683 50.3334C396.683 49.2211 397.847 48.1089 399.012 48.1089C400.176 48.1089 401.34 48.8504 401.34 50.3334Z" fill="#E5E5E5"/>
<path d="M451.023 50.3334C451.023 51.4456 449.859 52.5578 448.694 52.5578C447.53 52.5578 446.365 51.4456 446.365 50.3334C446.365 49.2211 447.53 48.1089 448.694 48.1089C449.859 48.1089 451.023 48.8504 451.023 50.3334Z" fill="#E5E5E5"/>
<path d="M500.706 50.3334C500.706 51.4456 499.542 52.5578 498.377 52.5578C497.213 52.5578 496.048 51.4456 496.048 50.3334C496.048 49.2211 497.213 48.1089 498.377 48.1089C499.542 48.1089 500.706 48.8504 500.706 50.3334Z" fill="#E5E5E5"/>
<path d="M549.999 50.3334C549.999 51.4456 548.835 52.5578 547.671 52.5578C546.506 52.5578 545.342 51.4456 545.342 50.3334C545.342 49.2211 546.506 48.1089 547.671 48.1089C549.223 48.1089 549.999 48.8504 549.999 50.3334Z" fill="#E5E5E5"/>
<path d="M4.65775 97.7889C4.65775 98.9012 3.49331 100.013 2.32887 100.013C1.16444 100.013 0 98.9012 0 97.7889C0 96.6767 1.16444 95.5645 2.32887 95.5645C3.49331 95.5645 4.65775 96.3059 4.65775 97.7889Z" fill="#E5E5E5"/>
<path d="M54.3404 97.7885C54.3404 98.9008 53.1759 100.013 52.0115 100.013C50.8471 100.013 49.6826 98.9008 49.6826 97.7885C49.6826 96.6763 50.8471 95.564 52.0115 95.564C53.1759 95.1933 54.3404 96.3055 54.3404 97.7885Z" fill="#E5E5E5"/>
<path d="M104.023 97.7885C104.023 98.9008 102.858 100.013 101.694 100.013C100.529 100.013 99.3647 98.9008 99.3647 97.7885C99.3647 96.6763 100.529 95.564 101.694 95.564C102.858 95.1933 104.023 96.3055 104.023 97.7885Z" fill="#E5E5E5"/>
<path d="M153.705 97.7885C153.705 98.9008 152.541 100.013 151.376 100.013C150.212 100.013 149.047 98.9008 149.047 97.7885C149.047 96.6763 150.212 95.564 151.376 95.564C152.541 95.1933 153.705 96.3055 153.705 97.7885Z" fill="#E5E5E5"/>
<path d="M202.999 97.7885C202.999 98.9008 201.834 100.013 200.67 100.013C199.505 100.013 198.341 98.9008 198.341 97.7885C198.341 96.6763 199.505 95.564 200.67 95.564C201.834 95.1933 202.999 96.3055 202.999 97.7885Z" fill="#E5E5E5"/>
<path d="M252.683 97.7889C252.683 98.9012 251.518 100.013 250.354 100.013C249.189 100.013 248.025 98.9012 248.025 97.7889C248.025 96.6767 249.189 95.5645 250.354 95.5645C251.518 95.5645 252.683 96.3059 252.683 97.7889Z" fill="#E5E5E5"/>
<path d="M302.364 97.7889C302.364 98.9012 301.2 100.013 300.035 100.013C298.871 100.013 297.706 98.9012 297.706 97.7889C297.706 96.6767 298.871 95.5645 300.035 95.5645C301.2 95.5645 302.364 96.3059 302.364 97.7889Z" fill="#E5E5E5"/>
<path d="M351.658 97.7885C351.658 98.9008 350.493 100.013 349.329 100.013C348.164 100.013 347 98.9008 347 97.7885C347 96.6763 348.164 95.564 349.329 95.564C350.881 95.1933 351.658 96.3055 351.658 97.7885Z" fill="#E5E5E5"/>
<path d="M401.34 97.7885C401.34 98.9008 400.176 100.013 399.012 100.013C397.847 100.013 396.683 98.9008 396.683 97.7885C396.683 96.6763 397.847 95.564 399.012 95.564C400.176 95.1933 401.34 96.3055 401.34 97.7885Z" fill="#E5E5E5"/>
<path d="M451.023 97.7885C451.023 98.9008 449.859 100.013 448.694 100.013C447.53 100.013 446.365 98.9008 446.365 97.7885C446.365 96.6763 447.53 95.564 448.694 95.564C449.859 95.1933 451.023 96.3055 451.023 97.7885Z" fill="#E5E5E5"/>
<path d="M500.706 97.7885C500.706 98.9008 499.542 100.013 498.377 100.013C497.213 100.013 496.048 98.9008 496.048 97.7885C496.048 96.6763 497.213 95.564 498.377 95.564C499.542 95.1933 500.706 96.3055 500.706 97.7885Z" fill="#E5E5E5"/>
<path d="M549.999 97.7885C549.999 98.9008 548.835 100.013 547.671 100.013C546.506 100.013 545.342 98.9008 545.342 97.7885C545.342 96.6763 546.506 95.564 547.671 95.564C549.223 95.1933 549.999 96.3055 549.999 97.7885Z" fill="#E5E5E5"/>
<path d="M4.65775 144.873C4.65775 145.986 3.49331 147.098 2.32887 147.098C1.16444 147.098 0 146.356 0 144.873C0 143.761 1.16444 142.649 2.32887 142.649C3.49331 142.649 4.65775 143.761 4.65775 144.873Z" fill="#E5E5E5"/>
<path d="M54.3404 144.873C54.3404 145.986 53.1759 147.098 52.0115 147.098C50.8471 147.098 49.6826 145.986 49.6826 144.873C49.6826 143.761 50.8471 142.649 52.0115 142.649C53.1759 142.649 54.3404 143.761 54.3404 144.873Z" fill="#E5E5E5"/>
<path d="M104.023 144.873C104.023 145.986 102.858 147.098 101.694 147.098C100.529 147.098 99.3647 145.986 99.3647 144.873C99.3647 143.761 100.529 142.649 101.694 142.649C102.858 142.649 104.023 143.761 104.023 144.873Z" fill="#E5E5E5"/>
<path d="M153.705 144.873C153.705 145.986 152.541 147.098 151.376 147.098C150.212 147.098 149.047 145.986 149.047 144.873C149.047 143.761 150.212 142.649 151.376 142.649C152.541 142.649 153.705 143.761 153.705 144.873Z" fill="#E5E5E5"/>
<path d="M202.999 144.873C202.999 145.986 201.834 147.098 200.67 147.098C199.505 147.098 198.341 145.986 198.341 144.873C198.341 143.761 199.505 142.649 200.67 142.649C201.834 142.649 202.999 143.761 202.999 144.873Z" fill="#E5E5E5"/>
<path d="M252.683 144.873C252.683 145.986 251.518 147.098 250.354 147.098C249.189 147.098 248.025 145.986 248.025 144.873C248.025 143.761 249.189 142.649 250.354 142.649C251.518 142.649 252.683 143.761 252.683 144.873Z" fill="#E5E5E5"/>
<path d="M302.364 144.873C302.364 145.986 301.2 147.098 300.035 147.098C298.871 147.098 297.706 145.986 297.706 144.873C297.706 143.761 298.871 142.649 300.035 142.649C301.2 142.649 302.364 143.761 302.364 144.873Z" fill="#E5E5E5"/>
<path d="M351.658 144.873C351.658 145.986 350.493 147.098 349.329 147.098C348.164 147.098 347 145.986 347 144.873C347 143.761 348.164 142.649 349.329 142.649C350.881 142.649 351.658 143.761 351.658 144.873Z" fill="#E5E5E5"/>
<path d="M401.34 144.873C401.34 145.986 400.176 147.098 399.012 147.098C397.847 147.098 396.683 145.986 396.683 144.873C396.683 143.761 397.847 142.649 399.012 142.649C400.176 142.649 401.34 143.761 401.34 144.873Z" fill="#E5E5E5"/>
<path d="M451.023 144.873C451.023 145.986 449.859 147.098 448.694 147.098C447.53 147.098 446.365 145.986 446.365 144.873C446.365 143.761 447.53 142.649 448.694 142.649C449.859 142.649 451.023 143.761 451.023 144.873Z" fill="#E5E5E5"/>
<path d="M500.706 144.873C500.706 145.986 499.542 147.098 498.377 147.098C497.213 147.098 496.048 145.986 496.048 144.873C496.048 143.761 497.213 142.649 498.377 142.649C499.542 142.649 500.706 143.761 500.706 144.873Z" fill="#E5E5E5"/>
<path d="M549.999 144.873C549.999 145.986 548.835 147.098 547.671 147.098C546.506 147.098 545.342 145.986 545.342 144.873C545.342 143.761 546.506 142.649 547.671 142.649C549.223 142.649 549.999 143.761 549.999 144.873Z" fill="#E5E5E5"/>
<path d="M4.65775 192.329C4.65775 193.441 3.49331 194.553 2.32887 194.553C1.16444 194.553 0 193.441 0 192.329C0 191.217 1.16444 190.104 2.32887 190.104C3.49331 190.104 4.65775 191.217 4.65775 192.329Z" fill="#E5E5E5"/>
<path d="M54.3404 192.329C54.3404 193.441 53.1759 194.553 52.0115 194.553C50.8471 194.553 49.6826 193.441 49.6826 192.329C49.6826 191.217 50.8471 190.104 52.0115 190.104C53.1759 190.104 54.3404 191.217 54.3404 192.329Z" fill="#E5E5E5"/>
<path d="M104.023 192.329C104.023 193.441 102.858 194.553 101.694 194.553C100.529 194.553 99.3647 193.441 99.3647 192.329C99.3647 191.217 100.529 190.104 101.694 190.104C102.858 190.104 104.023 191.217 104.023 192.329Z" fill="#E5E5E5"/>
<path d="M153.705 192.329C153.705 193.441 152.541 194.553 151.376 194.553C150.212 194.553 149.047 193.441 149.047 192.329C149.047 191.217 150.212 190.104 151.376 190.104C152.541 190.104 153.705 191.217 153.705 192.329Z" fill="#E5E5E5"/>
<path d="M202.999 192.329C202.999 193.441 201.834 194.553 200.67 194.553C199.505 194.553 198.341 193.441 198.341 192.329C198.341 191.217 199.505 190.104 200.67 190.104C201.834 190.104 202.999 191.217 202.999 192.329Z" fill="#E5E5E5"/>
<path d="M252.683 192.329C252.683 193.441 251.518 194.553 250.354 194.553C249.189 194.553 248.025 193.441 248.025 192.329C248.025 191.217 249.189 190.104 250.354 190.104C251.518 190.104 252.683 191.217 252.683 192.329Z" fill="#E5E5E5"/>
<path d="M302.364 192.329C302.364 193.441 301.2 194.553 300.035 194.553C298.871 194.553 297.706 193.441 297.706 192.329C297.706 191.217 298.871 190.104 300.035 190.104C301.2 190.104 302.364 191.217 302.364 192.329Z" fill="#E5E5E5"/>
<path d="M351.658 192.329C351.658 193.441 350.493 194.553 349.329 194.553C348.164 194.553 347 193.441 347 192.329C347 191.217 348.164 190.104 349.329 190.104C350.881 190.104 351.658 191.217 351.658 192.329Z" fill="#E5E5E5"/>
<path d="M401.34 192.329C401.34 193.441 400.176 194.553 399.012 194.553C397.847 194.553 396.683 193.441 396.683 192.329C396.683 191.217 397.847 190.104 399.012 190.104C400.176 190.104 401.34 191.217 401.34 192.329Z" fill="#E5E5E5"/>
<path d="M451.023 192.329C451.023 193.441 449.859 194.553 448.694 194.553C447.53 194.553 446.365 193.441 446.365 192.329C446.365 191.217 447.53 190.104 448.694 190.104C449.859 190.104 451.023 191.217 451.023 192.329Z" fill="#E5E5E5"/>
<path d="M500.706 192.329C500.706 193.441 499.542 194.553 498.377 194.553C497.213 194.553 496.048 193.441 496.048 192.329C496.048 191.217 497.213 190.104 498.377 190.104C499.542 190.104 500.706 191.217 500.706 192.329Z" fill="#E5E5E5"/>
<path d="M549.999 192.329C549.999 193.441 548.835 194.553 547.671 194.553C546.506 194.553 545.342 193.441 545.342 192.329C545.342 191.217 546.506 190.104 547.671 190.104C549.223 190.104 549.999 191.217 549.999 192.329Z" fill="#E5E5E5"/>
<path d="M4.65775 239.784C4.65775 240.896 3.49331 242.008 2.32887 242.008C1.16444 242.008 0 240.896 0 239.784C0 238.671 1.16444 237.559 2.32887 237.559C3.49331 237.559 4.65775 238.301 4.65775 239.784Z" fill="#E5E5E5"/>
<path d="M54.3404 239.784C54.3404 240.896 53.1759 242.008 52.0115 242.008C50.8471 242.008 49.6826 240.896 49.6826 239.784C49.6826 238.671 50.8471 237.559 52.0115 237.559C53.1759 237.559 54.3404 238.301 54.3404 239.784Z" fill="#E5E5E5"/>
<path d="M104.023 239.784C104.023 240.896 102.858 242.008 101.694 242.008C100.529 242.008 99.3647 240.896 99.3647 239.784C99.3647 238.671 100.529 237.559 101.694 237.559C102.858 237.559 104.023 238.301 104.023 239.784Z" fill="#E5E5E5"/>
<path d="M153.705 239.784C153.705 240.896 152.541 242.008 151.376 242.008C150.212 242.008 149.047 240.896 149.047 239.784C149.047 238.671 150.212 237.559 151.376 237.559C152.541 237.559 153.705 238.301 153.705 239.784Z" fill="#E5E5E5"/>
<path d="M202.999 239.784C202.999 240.896 201.834 242.008 200.67 242.008C199.505 242.008 198.341 240.896 198.341 239.784C198.341 238.671 199.505 237.559 200.67 237.559C201.834 237.559 202.999 238.301 202.999 239.784Z" fill="#E5E5E5"/>
<path d="M252.683 239.784C252.683 240.896 251.518 242.008 250.354 242.008C249.189 242.008 248.025 240.896 248.025 239.784C248.025 238.671 249.189 237.559 250.354 237.559C251.518 237.559 252.683 238.301 252.683 239.784Z" fill="#E5E5E5"/>
<path d="M302.364 239.784C302.364 240.896 301.2 242.008 300.035 242.008C298.871 242.008 297.706 240.896 297.706 239.784C297.706 238.671 298.871 237.559 300.035 237.559C301.2 237.559 302.364 238.301 302.364 239.784Z" fill="#E5E5E5"/>
<path d="M351.658 239.784C351.658 240.896 350.493 242.008 349.329 242.008C348.164 242.008 347 240.896 347 239.784C347 238.671 348.164 237.559 349.329 237.559C350.881 237.559 351.658 238.301 351.658 239.784Z" fill="#E5E5E5"/>
<path d="M401.34 239.784C401.34 240.896 400.176 242.008 399.012 242.008C397.847 242.008 396.683 240.896 396.683 239.784C396.683 238.671 397.847 237.559 399.012 237.559C400.176 237.559 401.34 238.301 401.34 239.784Z" fill="#E5E5E5"/>
<path d="M451.023 239.784C451.023 240.896 449.859 242.008 448.694 242.008C447.53 242.008 446.365 240.896 446.365 239.784C446.365 238.671 447.53 237.559 448.694 237.559C449.859 237.559 451.023 238.301 451.023 239.784Z" fill="#E5E5E5"/>
<path d="M500.706 239.784C500.706 240.896 499.542 242.008 498.377 242.008C497.213 242.008 496.048 240.896 496.048 239.784C496.048 238.671 497.213 237.559 498.377 237.559C499.542 237.559 500.706 238.301 500.706 239.784Z" fill="#E5E5E5"/>
<path d="M549.999 239.784C549.999 240.896 548.835 242.008 547.671 242.008C546.506 242.008 545.342 240.896 545.342 239.784C545.342 238.671 546.506 237.559 547.671 237.559C549.223 237.559 549.999 238.301 549.999 239.784Z" fill="#E5E5E5"/>
<path d="M4.65775 287.24C4.65775 288.352 3.49331 289.465 2.32887 289.465C1.16444 289.465 0 288.352 0 287.24C0 286.128 1.16444 285.016 2.32887 285.016C3.49331 285.016 4.65775 285.757 4.65775 287.24Z" fill="#E5E5E5"/>
<path d="M54.3404 287.24C54.3404 288.352 53.1759 289.464 52.0115 289.464C50.8471 289.464 49.6826 288.352 49.6826 287.24C49.6826 286.127 50.8471 285.015 52.0115 285.015C53.1759 284.644 54.3404 285.757 54.3404 287.24Z" fill="#E5E5E5"/>
<path d="M104.023 287.24C104.023 288.352 102.858 289.464 101.694 289.464C100.529 289.464 99.3647 288.352 99.3647 287.24C99.3647 286.127 100.529 285.015 101.694 285.015C102.858 284.644 104.023 285.757 104.023 287.24Z" fill="#E5E5E5"/>
<path d="M153.705 287.24C153.705 288.352 152.541 289.464 151.376 289.464C150.212 289.464 149.047 288.352 149.047 287.24C149.047 286.127 150.212 285.015 151.376 285.015C152.541 284.644 153.705 285.757 153.705 287.24Z" fill="#E5E5E5"/>
<path d="M202.999 287.24C202.999 288.352 201.834 289.464 200.67 289.464C199.505 289.464 198.341 288.352 198.341 287.24C198.341 286.127 199.505 285.015 200.67 285.015C201.834 284.644 202.999 285.757 202.999 287.24Z" fill="#E5E5E5"/>
<path d="M252.683 287.239C252.683 288.351 251.518 289.464 250.354 289.464C249.189 289.464 248.025 288.351 248.025 287.239C248.025 286.127 249.189 285.015 250.354 285.015C251.518 285.015 252.683 285.756 252.683 287.239Z" fill="#E5E5E5"/>
<path d="M302.364 287.239C302.364 288.351 301.2 289.464 300.035 289.464C298.871 289.464 297.706 288.351 297.706 287.239C297.706 286.127 298.871 285.015 300.035 285.015C301.2 285.015 302.364 285.756 302.364 287.239Z" fill="#E5E5E5"/>
<path d="M351.658 287.24C351.658 288.352 350.493 289.464 349.329 289.464C348.164 289.464 347 288.352 347 287.24C347 286.127 348.164 285.015 349.329 285.015C350.881 284.644 351.658 285.757 351.658 287.24Z" fill="#E5E5E5"/>
<path d="M401.34 287.24C401.34 288.352 400.176 289.464 399.012 289.464C397.847 289.464 396.683 288.352 396.683 287.24C396.683 286.127 397.847 285.015 399.012 285.015C400.176 284.644 401.34 285.757 401.34 287.24Z" fill="#E5E5E5"/>
<path d="M451.023 287.24C451.023 288.352 449.859 289.464 448.694 289.464C447.53 289.464 446.365 288.352 446.365 287.24C446.365 286.127 447.53 285.015 448.694 285.015C449.859 284.644 451.023 285.757 451.023 287.24Z" fill="#E5E5E5"/>
<path d="M500.706 287.24C500.706 288.352 499.542 289.464 498.377 289.464C497.213 289.464 496.048 288.352 496.048 287.24C496.048 286.127 497.213 285.015 498.377 285.015C499.542 284.644 500.706 285.757 500.706 287.24Z" fill="#E5E5E5"/>
<path d="M549.999 287.24C549.999 288.352 548.835 289.464 547.671 289.464C546.506 289.464 545.342 288.352 545.342 287.24C545.342 286.127 546.506 285.015 547.671 285.015C549.223 284.644 549.999 285.757 549.999 287.24Z" fill="#E5E5E5"/>
<path d="M4.65775 334.324C4.65775 335.436 3.49331 336.549 2.32887 336.549C1.16444 336.549 0 335.807 0 334.324C0 333.212 1.16444 332.1 2.32887 332.1C3.49331 332.1 4.65775 333.212 4.65775 334.324Z" fill="#E5E5E5"/>
<path d="M54.3404 334.325C54.3404 335.437 53.1759 336.549 52.0115 336.549C50.8471 336.549 49.6826 335.437 49.6826 334.325C49.6826 333.212 50.8471 332.1 52.0115 332.1C53.1759 332.1 54.3404 333.212 54.3404 334.325Z" fill="#E5E5E5"/>
<path d="M104.023 334.325C104.023 335.437 102.858 336.549 101.694 336.549C100.529 336.549 99.3647 335.437 99.3647 334.325C99.3647 333.212 100.529 332.1 101.694 332.1C102.858 332.1 104.023 333.212 104.023 334.325Z" fill="#E5E5E5"/>
<path d="M153.705 334.325C153.705 335.437 152.541 336.549 151.376 336.549C150.212 336.549 149.047 335.437 149.047 334.325C149.047 333.212 150.212 332.1 151.376 332.1C152.541 332.1 153.705 333.212 153.705 334.325Z" fill="#E5E5E5"/>
<path d="M202.999 334.325C202.999 335.437 201.834 336.549 200.67 336.549C199.505 336.549 198.341 335.437 198.341 334.325C198.341 333.212 199.505 332.1 200.67 332.1C201.834 332.1 202.999 333.212 202.999 334.325Z" fill="#E5E5E5"/>
<path d="M252.683 334.325C252.683 335.437 251.518 336.549 250.354 336.549C249.189 336.549 248.025 335.437 248.025 334.325C248.025 333.212 249.189 332.1 250.354 332.1C251.518 332.1 252.683 333.212 252.683 334.325Z" fill="#E5E5E5"/>
<path d="M302.364 334.325C302.364 335.437 301.2 336.549 300.035 336.549C298.871 336.549 297.706 335.437 297.706 334.325C297.706 333.212 298.871 332.1 300.035 332.1C301.2 332.1 302.364 333.212 302.364 334.325Z" fill="#E5E5E5"/>
<path d="M351.658 334.325C351.658 335.437 350.493 336.549 349.329 336.549C348.164 336.549 347 335.437 347 334.325C347 333.212 348.164 332.1 349.329 332.1C350.881 332.1 351.658 333.212 351.658 334.325Z" fill="#E5E5E5"/>
<path d="M401.34 334.325C401.34 335.437 400.176 336.549 399.012 336.549C397.847 336.549 396.683 335.437 396.683 334.325C396.683 333.212 397.847 332.1 399.012 332.1C400.176 332.1 401.34 333.212 401.34 334.325Z" fill="#E5E5E5"/>
<path d="M451.023 334.325C451.023 335.437 449.859 336.549 448.694 336.549C447.53 336.549 446.365 335.437 446.365 334.325C446.365 333.212 447.53 332.1 448.694 332.1C449.859 332.1 451.023 333.212 451.023 334.325Z" fill="#E5E5E5"/>
<path d="M500.706 334.325C500.706 335.437 499.542 336.549 498.377 336.549C497.213 336.549 496.048 335.437 496.048 334.325C496.048 333.212 497.213 332.1 498.377 332.1C499.542 332.1 500.706 333.212 500.706 334.325Z" fill="#E5E5E5"/>
<path d="M549.999 334.325C549.999 335.437 548.835 336.549 547.671 336.549C546.506 336.549 545.342 335.437 545.342 334.325C545.342 333.212 546.506 332.1 547.671 332.1C549.223 332.1 549.999 333.212 549.999 334.325Z" fill="#E5E5E5"/>
<path d="M4.65775 381.78C4.65775 382.892 3.49331 384.005 2.32887 384.005C1.16444 384.005 0 382.892 0 381.78C0 380.668 1.16444 379.556 2.32887 379.556C3.49331 379.556 4.65775 380.668 4.65775 381.78Z" fill="#E5E5E5"/>
<path d="M54.3404 381.78C54.3404 382.892 53.1759 384.005 52.0115 384.005C50.8471 384.005 49.6826 382.892 49.6826 381.78C49.6826 380.668 50.8471 379.556 52.0115 379.556C53.1759 379.556 54.3404 380.668 54.3404 381.78Z" fill="#E5E5E5"/>
<path d="M104.023 381.78C104.023 382.892 102.858 384.005 101.694 384.005C100.529 384.005 99.3647 382.892 99.3647 381.78C99.3647 380.668 100.529 379.556 101.694 379.556C102.858 379.556 104.023 380.668 104.023 381.78Z" fill="#E5E5E5"/>
<path d="M153.705 381.78C153.705 382.892 152.541 384.005 151.376 384.005C150.212 384.005 149.047 382.892 149.047 381.78C149.047 380.668 150.212 379.556 151.376 379.556C152.541 379.556 153.705 380.668 153.705 381.78Z" fill="#E5E5E5"/>
<path d="M202.999 381.78C202.999 382.892 201.834 384.005 200.67 384.005C199.505 384.005 198.341 382.892 198.341 381.78C198.341 380.668 199.505 379.556 200.67 379.556C201.834 379.556 202.999 380.668 202.999 381.78Z" fill="#E5E5E5"/>
<path d="M252.683 381.78C252.683 382.892 251.518 384.005 250.354 384.005C249.189 384.005 248.025 382.892 248.025 381.78C248.025 380.668 249.189 379.556 250.354 379.556C251.518 379.556 252.683 380.668 252.683 381.78Z" fill="#E5E5E5"/>
<path d="M302.364 381.78C302.364 382.892 301.2 384.005 300.035 384.005C298.871 384.005 297.706 382.892 297.706 381.78C297.706 380.668 298.871 379.556 300.035 379.556C301.2 379.556 302.364 380.668 302.364 381.78Z" fill="#E5E5E5"/>
<path d="M351.658 381.78C351.658 382.892 350.493 384.005 349.329 384.005C348.164 384.005 347 382.892 347 381.78C347 380.668 348.164 379.556 349.329 379.556C350.881 379.556 351.658 380.668 351.658 381.78Z" fill="#E5E5E5"/>
<path d="M401.34 381.78C401.34 382.892 400.176 384.005 399.012 384.005C397.847 384.005 396.683 382.892 396.683 381.78C396.683 380.668 397.847 379.556 399.012 379.556C400.176 379.556 401.34 380.668 401.34 381.78Z" fill="#E5E5E5"/>
<path d="M451.023 381.78C451.023 382.892 449.859 384.005 448.694 384.005C447.53 384.005 446.365 382.892 446.365 381.78C446.365 380.668 447.53 379.556 448.694 379.556C449.859 379.556 451.023 380.668 451.023 381.78Z" fill="#E5E5E5"/>
<path d="M500.706 381.78C500.706 382.892 499.542 384.005 498.377 384.005C497.213 384.005 496.048 382.892 496.048 381.78C496.048 380.668 497.213 379.556 498.377 379.556C499.542 379.556 500.706 380.668 500.706 381.78Z" fill="#E5E5E5"/>
<path d="M549.999 381.78C549.999 382.892 548.835 384.005 547.671 384.005C546.506 384.005 545.342 382.892 545.342 381.78C545.342 380.668 546.506 379.556 547.671 379.556C549.223 379.556 549.999 380.668 549.999 381.78Z" fill="#E5E5E5"/>
<path d="M4.65775 429.235C4.65775 430.347 3.49331 431.46 2.32887 431.46C1.16444 431.46 0 430.347 0 429.235C0 428.123 1.16444 427.011 2.32887 427.011C3.49331 427.011 4.65775 427.752 4.65775 429.235Z" fill="#E5E5E5"/>
<path d="M54.3404 429.235C54.3404 430.347 53.1759 431.46 52.0115 431.46C50.8471 431.46 49.6826 430.347 49.6826 429.235C49.6826 428.123 50.8471 427.011 52.0115 427.011C53.1759 427.011 54.3404 427.752 54.3404 429.235Z" fill="#E5E5E5"/>
<path d="M104.023 429.235C104.023 430.347 102.858 431.46 101.694 431.46C100.529 431.46 99.3647 430.347 99.3647 429.235C99.3647 428.123 100.529 427.011 101.694 427.011C102.858 427.011 104.023 427.752 104.023 429.235Z" fill="#E5E5E5"/>
<path d="M153.705 429.235C153.705 430.347 152.541 431.46 151.376 431.46C150.212 431.46 149.047 430.347 149.047 429.235C149.047 428.123 150.212 427.011 151.376 427.011C152.541 427.011 153.705 427.752 153.705 429.235Z" fill="#E5E5E5"/>
<path d="M202.999 429.235C202.999 430.347 201.834 431.46 200.67 431.46C199.505 431.46 198.341 430.347 198.341 429.235C198.341 428.123 199.505 427.011 200.67 427.011C201.834 427.011 202.999 427.752 202.999 429.235Z" fill="#E5E5E5"/>
<path d="M252.683 429.235C252.683 430.347 251.518 431.46 250.354 431.46C249.189 431.46 248.025 430.347 248.025 429.235C248.025 428.123 249.189 427.011 250.354 427.011C251.518 427.011 252.683 427.752 252.683 429.235Z" fill="#E5E5E5"/>
<path d="M302.364 429.235C302.364 430.347 301.2 431.46 300.035 431.46C298.871 431.46 297.706 430.347 297.706 429.235C297.706 428.123 298.871 427.011 300.035 427.011C301.2 427.011 302.364 427.752 302.364 429.235Z" fill="#E5E5E5"/>
<path d="M351.658 429.235C351.658 430.347 350.493 431.46 349.329 431.46C348.164 431.46 347 430.347 347 429.235C347 428.123 348.164 427.011 349.329 427.011C350.881 427.011 351.658 427.752 351.658 429.235Z" fill="#E5E5E5"/>
<path d="M401.34 429.235C401.34 430.347 400.176 431.46 399.012 431.46C397.847 431.46 396.683 430.347 396.683 429.235C396.683 428.123 397.847 427.011 399.012 427.011C400.176 427.011 401.34 427.752 401.34 429.235Z" fill="#E5E5E5"/>
<path d="M451.023 429.235C451.023 430.347 449.859 431.46 448.694 431.46C447.53 431.46 446.365 430.347 446.365 429.235C446.365 428.123 447.53 427.011 448.694 427.011C449.859 427.011 451.023 427.752 451.023 429.235Z" fill="#E5E5E5"/>
<path d="M500.706 429.235C500.706 430.347 499.542 431.46 498.377 431.46C497.213 431.46 496.048 430.347 496.048 429.235C496.048 428.123 497.213 427.011 498.377 427.011C499.542 427.011 500.706 427.752 500.706 429.235Z" fill="#E5E5E5"/>
<path d="M549.999 429.235C549.999 430.347 548.835 431.46 547.671 431.46C546.506 431.46 545.342 430.347 545.342 429.235C545.342 428.123 546.506 427.011 547.671 427.011C549.223 427.011 549.999 427.752 549.999 429.235Z" fill="#E5E5E5"/>
<path d="M4.65775 476.32C4.65775 477.432 3.49331 478.545 2.32887 478.545C1.16444 478.545 0 477.803 0 476.32C0 475.208 1.16444 474.096 2.32887 474.096C3.49331 474.096 4.65775 475.208 4.65775 476.32Z" fill="#E5E5E5"/>
<path d="M54.3404 476.32C54.3404 477.432 53.1759 478.545 52.0115 478.545C50.8471 478.545 49.6826 477.432 49.6826 476.32C49.6826 475.208 50.8471 474.096 52.0115 474.096C53.1759 474.096 54.3404 475.208 54.3404 476.32Z" fill="#E5E5E5"/>
<path d="M104.023 476.32C104.023 477.432 102.858 478.545 101.694 478.545C100.529 478.545 99.3647 477.432 99.3647 476.32C99.3647 475.208 100.529 474.096 101.694 474.096C102.858 474.096 104.023 475.208 104.023 476.32Z" fill="#E5E5E5"/>
<path d="M153.705 476.32C153.705 477.432 152.541 478.545 151.376 478.545C150.212 478.545 149.047 477.432 149.047 476.32C149.047 475.208 150.212 474.096 151.376 474.096C152.541 474.096 153.705 475.208 153.705 476.32Z" fill="#E5E5E5"/>
<path d="M202.999 476.32C202.999 477.432 201.834 478.545 200.67 478.545C199.505 478.545 198.341 477.432 198.341 476.32C198.341 475.208 199.505 474.096 200.67 474.096C201.834 474.096 202.999 475.208 202.999 476.32Z" fill="#E5E5E5"/>
<path d="M252.683 476.32C252.683 477.432 251.518 478.545 250.354 478.545C249.189 478.545 248.025 477.432 248.025 476.32C248.025 475.208 249.189 474.096 250.354 474.096C251.518 474.096 252.683 475.208 252.683 476.32Z" fill="#E5E5E5"/>
<path d="M302.364 476.32C302.364 477.432 301.2 478.545 300.035 478.545C298.871 478.545 297.706 477.432 297.706 476.32C297.706 475.208 298.871 474.096 300.035 474.096C301.2 474.096 302.364 475.208 302.364 476.32Z" fill="#E5E5E5"/>
<path d="M351.658 476.32C351.658 477.432 350.493 478.545 349.329 478.545C348.164 478.545 347 477.432 347 476.32C347 475.208 348.164 474.096 349.329 474.096C350.881 474.096 351.658 475.208 351.658 476.32Z" fill="#E5E5E5"/>
<path d="M401.34 476.32C401.34 477.432 400.176 478.545 399.012 478.545C397.847 478.545 396.683 477.432 396.683 476.32C396.683 475.208 397.847 474.096 399.012 474.096C400.176 474.096 401.34 475.208 401.34 476.32Z" fill="#E5E5E5"/>
<path d="M451.023 476.32C451.023 477.432 449.859 478.545 448.694 478.545C447.53 478.545 446.365 477.432 446.365 476.32C446.365 475.208 447.53 474.096 448.694 474.096C449.859 474.096 451.023 475.208 451.023 476.32Z" fill="#E5E5E5"/>
<path d="M500.706 476.32C500.706 477.432 499.542 478.545 498.377 478.545C497.213 478.545 496.048 477.432 496.048 476.32C496.048 475.208 497.213 474.096 498.377 474.096C499.542 474.096 500.706 475.208 500.706 476.32Z" fill="#E5E5E5"/>
<path d="M549.999 476.32C549.999 477.432 548.835 478.545 547.671 478.545C546.506 478.545 545.342 477.432 545.342 476.32C545.342 475.208 546.506 474.096 547.671 474.096C549.223 474.096 549.999 475.208 549.999 476.32Z" fill="#E5E5E5"/>
<path d="M4.65775 523.776C4.65775 524.888 3.49331 526 2.32887 526C1.16444 526 0 525.259 0 523.776C0 522.664 1.16444 521.551 2.32887 521.551C3.49331 521.551 4.65775 522.664 4.65775 523.776Z" fill="#E5E5E5"/>
<path d="M54.3404 523.776C54.3404 524.888 53.1759 526 52.0115 526C50.8471 526 49.6826 524.888 49.6826 523.776C49.6826 522.664 50.8471 521.551 52.0115 521.551C53.1759 521.551 54.3404 522.664 54.3404 523.776Z" fill="#E5E5E5"/>
<path d="M104.023 523.776C104.023 524.888 102.858 526 101.694 526C100.529 526 99.3647 524.888 99.3647 523.776C99.3647 522.664 100.529 521.551 101.694 521.551C102.858 521.551 104.023 522.664 104.023 523.776Z" fill="#E5E5E5"/>
<path d="M153.705 523.776C153.705 524.888 152.541 526 151.376 526C150.212 526 149.047 524.888 149.047 523.776C149.047 522.664 150.212 521.551 151.376 521.551C152.541 521.551 153.705 522.664 153.705 523.776Z" fill="#E5E5E5"/>
<path d="M202.999 523.776C202.999 524.888 201.834 526 200.67 526C199.505 526 198.341 524.888 198.341 523.776C198.341 522.664 199.505 521.551 200.67 521.551C201.834 521.551 202.999 522.664 202.999 523.776Z" fill="#E5E5E5"/>
<path d="M252.683 523.776C252.683 524.888 251.518 526 250.354 526C249.189 526 248.025 524.888 248.025 523.776C248.025 522.664 249.189 521.551 250.354 521.551C251.518 521.551 252.683 522.664 252.683 523.776Z" fill="#E5E5E5"/>
<path d="M302.364 523.776C302.364 524.888 301.2 526 300.035 526C298.871 526 297.706 524.888 297.706 523.776C297.706 522.664 298.871 521.551 300.035 521.551C301.2 521.551 302.364 522.664 302.364 523.776Z" fill="#E5E5E5"/>
<path d="M351.658 523.776C351.658 524.888 350.493 526 349.329 526C348.164 526 347 524.888 347 523.776C347 522.664 348.164 521.551 349.329 521.551C350.881 521.551 351.658 522.664 351.658 523.776Z" fill="#E5E5E5"/>
<path d="M401.34 523.776C401.34 524.888 400.176 526 399.012 526C397.847 526 396.683 524.888 396.683 523.776C396.683 522.664 397.847 521.551 399.012 521.551C400.176 521.551 401.34 522.664 401.34 523.776Z" fill="#E5E5E5"/>
<path d="M451.023 523.776C451.023 524.888 449.859 526 448.694 526C447.53 526 446.365 524.888 446.365 523.776C446.365 522.664 447.53 521.551 448.694 521.551C449.859 521.551 451.023 522.664 451.023 523.776Z" fill="#E5E5E5"/>
<path d="M500.706 523.776C500.706 524.888 499.542 526 498.377 526C497.213 526 496.048 524.888 496.048 523.776C496.048 522.664 497.213 521.551 498.377 521.551C499.542 521.551 500.706 522.664 500.706 523.776Z" fill="#E5E5E5"/>
<path d="M549.999 523.776C549.999 524.888 548.835 526 547.671 526C546.506 526 545.342 524.888 545.342 523.776C545.342 522.664 546.506 521.551 547.671 521.551C549.223 521.551 549.999 522.664 549.999 523.776Z" fill="#E5E5E5"/>
</svg>
