<svg width="43" height="268" viewBox="0 0 43 268" fill="none" xmlns="http://www.w3.org/2000/svg">
<circle cx="37.9603" cy="5.80848" r="4.98548" transform="rotate(90 37.9603 5.80848)" fill="#E6E6E6"/>
<circle cx="5.83142" cy="5.80848" r="4.98548" transform="rotate(90 5.83142 5.80848)" fill="#E6E6E6"/>
<circle cx="37.9603" cy="134.323" r="4.98548" transform="rotate(90 37.9603 134.323)" fill="#E6E6E6"/>
<circle cx="5.83142" cy="134.323" r="4.98548" transform="rotate(90 5.83142 134.323)" fill="#E6E6E6"/>
<circle cx="37.9603" cy="262.838" r="4.98548" transform="rotate(90 37.9603 262.838)" fill="#E6E6E6"/>
<circle cx="5.83142" cy="262.838" r="4.98548" transform="rotate(90 5.83142 262.838)" fill="#E6E6E6"/>
<circle cx="37.9603" cy="70.0658" r="4.98548" transform="rotate(90 37.9603 70.0658)" fill="#E6E6E6"/>
<circle cx="5.83142" cy="70.0658" r="4.98548" transform="rotate(90 5.83142 70.0658)" fill="#E6E6E6"/>
<circle cx="37.9603" cy="198.58" r="4.98548" transform="rotate(90 37.9603 198.58)" fill="#E6E6E6"/>
<circle cx="5.83142" cy="198.58" r="4.98548" transform="rotate(90 5.83142 198.58)" fill="#E6E6E6"/>
<circle cx="37.9603" cy="37.9371" r="4.98548" transform="rotate(90 37.9603 37.9371)" fill="#E6E6E6"/>
<circle cx="5.83142" cy="37.9371" r="4.98548" transform="rotate(90 5.83142 37.9371)" fill="#E6E6E6"/>
<circle cx="37.9603" cy="166.452" r="4.98548" transform="rotate(90 37.9603 166.452)" fill="#E6E6E6"/>
<circle cx="5.83142" cy="166.452" r="4.98548" transform="rotate(90 5.83142 166.452)" fill="#E6E6E6"/>
<circle cx="37.9603" cy="102.194" r="4.98548" transform="rotate(90 37.9603 102.194)" fill="#E6E6E6"/>
<circle cx="5.83142" cy="102.194" r="4.98548" transform="rotate(90 5.83142 102.194)" fill="#E6E6E6"/>
<circle cx="37.9603" cy="230.709" r="4.98548" transform="rotate(90 37.9603 230.709)" fill="#E6E6E6"/>
<circle cx="5.83142" cy="230.709" r="4.98548" transform="rotate(90 5.83142 230.709)" fill="#E6E6E6"/>
</svg>
