<svg width="44" height="31" viewBox="0 0 44 31" fill="none" xmlns="http://www.w3.org/2000/svg">
<circle r="13.5" transform="matrix(-1 0 0 1 15 15.6364)" stroke="white" stroke-width="3"/>
<path d="M10.3896 14.723C10.39 14.7226 10.3903 14.7222 10.3908 14.7218L17.3305 8.01209C17.8504 7.50945 18.6913 7.51132 19.2088 8.01648C19.7262 8.52157 19.7242 9.33854 19.2043 9.84125L14.545 14.346H42.6719C43.4054 14.346 44 14.9237 44 15.6364C44 16.349 43.4054 16.9267 42.6719 16.9267H14.5451L19.2043 21.4315C19.7241 21.9342 19.7261 22.7511 19.2087 23.2562C18.6912 23.7615 17.8502 23.7632 17.3304 23.2606L10.3907 16.5509C10.3903 16.5505 10.39 16.5501 10.3895 16.5497C9.86933 16.0453 9.87099 15.2257 10.3896 14.723Z" fill="white"/>
</svg>
